<svg xmlns="http://www.w3.org/2000/svg" width="75.828" height="75.828" viewBox="0 0 75.828 75.828">
  <g id="Grupo_62082" data-name="Grupo 62082" transform="translate(-1293.563 -7233.172)">
    <g id="Grupo_61404" data-name="Grupo 61404" transform="translate(737 -77)">
      <g id="Grupo_61401" data-name="Grupo 61401" transform="translate(39 38)">
        <path id="Trazado_5390" data-name="Trazado 5390" d="M1909.431,6466.172q1.863,0,3.716.183t3.68.546q1.827.363,3.609.9t3.5,1.253q1.72.713,3.364,1.591t3.191,1.913q1.548,1.034,2.989,2.216t2.757,2.5q1.317,1.317,2.5,2.756t2.217,2.988q1.035,1.549,1.913,3.192t1.591,3.364q.713,1.72,1.254,3.5t.9,3.609q.363,1.827.546,3.68t.183,3.717q0,1.863-.183,3.716t-.546,3.681q-.363,1.827-.9,3.609t-1.254,3.5q-.712,1.721-1.591,3.364t-1.913,3.191q-1.035,1.548-2.217,2.988t-2.5,2.757q-1.317,1.318-2.757,2.5t-2.989,2.217q-1.549,1.034-3.191,1.913t-3.364,1.59q-1.721.713-3.5,1.253t-3.609.9q-1.827.364-3.68.546t-3.716.183q-1.862,0-3.716-.183t-3.68-.546q-1.827-.363-3.609-.9t-3.5-1.253q-1.721-.713-3.364-1.59t-3.192-1.913q-1.549-1.035-2.988-2.217t-2.757-2.5q-1.318-1.318-2.5-2.757t-2.216-2.988q-1.034-1.549-1.913-3.191t-1.591-3.364q-.712-1.72-1.254-3.5t-.9-3.609q-.363-1.827-.546-3.681t-.182-3.716q0-1.863.182-3.717t.546-3.68q.363-1.826.9-3.609t1.254-3.5q.713-1.721,1.591-3.364t1.913-3.192q1.035-1.548,2.216-2.988t2.5-2.756q1.317-1.318,2.757-2.5t2.988-2.216q1.549-1.034,3.192-1.913t3.364-1.591q1.721-.713,3.5-1.253t3.609-.9q1.827-.364,3.68-.546T1909.431,6466.172Z" transform="translate(-1353.954 806)" fill="#a0a603"/>
        <path id="Trazado_89795" data-name="Trazado 89795" d="M35.613,0A35.613,35.613,0,1,1,0,35.613,35.57,35.57,0,0,1,35.613,0Z" transform="translate(519.864 7274.473)" fill="#fff"/>
        <circle id="Elipse_120" data-name="Elipse 120" cx="32.397" cy="32.397" r="32.397" transform="translate(523.08 7277.689)" fill="#d8df25"/>
      </g>
      <path id="Trazado_138139" data-name="Trazado 138139" d="M-7.617-6.519a4.775,4.775,0,0,0,.41,2.109A2.81,2.81,0,0,0-4.438-2.871a3.068,3.068,0,0,0,2.146-.842,3.13,3.13,0,0,0,.916-2.424,2.731,2.731,0,0,0-1.7-2.8,8.626,8.626,0,0,0-3.047-.4v-2.988a7.905,7.905,0,0,0,2.842-.4,2.443,2.443,0,0,0,1.392-2.49,2.783,2.783,0,0,0-.71-1.978,2.6,2.6,0,0,0-2-.762,2.53,2.53,0,0,0-2.175.938,3.977,3.977,0,0,0-.667,2.5h-3.9a10.477,10.477,0,0,1,.542-3,6.759,6.759,0,0,1,1.611-2.3,5.614,5.614,0,0,1,1.948-1.143,8.431,8.431,0,0,1,2.769-.4A7.368,7.368,0,0,1,.447-19.768a5.245,5.245,0,0,1,1.868,4.226A4.672,4.672,0,0,1,1.2-12.378a3.8,3.8,0,0,1-1.465,1.1,3.013,3.013,0,0,1,1.641.981,5.241,5.241,0,0,1,1.6,4.043A6.81,6.81,0,0,1,1.106-1.516,7.119,7.119,0,0,1-4.424.527q-4.512,0-6.27-2.944a8.739,8.739,0,0,1-1.025-4.1ZM6.05-4.365h4.438V0H6.05Z" transform="translate(594 7358)" fill="#0f231a"/>
    </g>
  </g>
</svg>
