<svg xmlns="http://www.w3.org/2000/svg" width="75.828" height="75.828" viewBox="0 0 75.828 75.828">
  <g id="Grupo_62088" data-name="Grupo 62088" transform="translate(-922.563 -7733.172)">
    <g id="Grupo_62084" data-name="Grupo 62084">
      <g id="Grupo_61406" data-name="Grupo 61406" transform="translate(366 423)">
        <g id="Grupo_61401" data-name="Grupo 61401" transform="translate(39 38)">
          <path id="Trazado_5390" data-name="Trazado 5390" d="M1909.431,6466.172q1.863,0,3.716.183t3.68.546q1.827.363,3.609.9t3.5,1.253q1.72.713,3.364,1.591t3.191,1.913q1.548,1.034,2.989,2.216t2.757,2.5q1.317,1.317,2.5,2.756t2.217,2.988q1.035,1.549,1.913,3.192t1.591,3.364q.713,1.72,1.254,3.5t.9,3.609q.363,1.827.546,3.68t.183,3.717q0,1.863-.183,3.716t-.546,3.681q-.363,1.827-.9,3.609t-1.254,3.5q-.712,1.721-1.591,3.364t-1.913,3.191q-1.035,1.548-2.217,2.988t-2.5,2.757q-1.317,1.318-2.757,2.5t-2.989,2.217q-1.549,1.034-3.191,1.913t-3.364,1.59q-1.721.713-3.5,1.253t-3.609.9q-1.827.364-3.68.546t-3.716.183q-1.862,0-3.716-.183t-3.68-.546q-1.827-.363-3.609-.9t-3.5-1.253q-1.721-.713-3.364-1.59t-3.192-1.913q-1.549-1.035-2.988-2.217t-2.757-2.5q-1.318-1.318-2.5-2.757t-2.216-2.988q-1.034-1.549-1.913-3.191t-1.591-3.364q-.712-1.72-1.254-3.5t-.9-3.609q-.363-1.827-.546-3.681t-.182-3.716q0-1.863.182-3.717t.546-3.68q.363-1.826.9-3.609t1.254-3.5q.713-1.721,1.591-3.364t1.913-3.192q1.035-1.548,2.216-2.988t2.5-2.756q1.317-1.318,2.757-2.5t2.988-2.216q1.549-1.034,3.192-1.913t3.364-1.591q1.721-.713,3.5-1.253t3.609-.9q1.827-.364,3.68-.546T1909.431,6466.172Z" transform="translate(-1353.954 806)" fill="#a0a603"/>
          <path id="Trazado_89795" data-name="Trazado 89795" d="M35.613,0A35.613,35.613,0,1,1,0,35.613,35.57,35.57,0,0,1,35.613,0Z" transform="translate(519.864 7274.473)" fill="#fff"/>
          <circle id="Elipse_120" data-name="Elipse 120" cx="32.397" cy="32.397" r="32.397" transform="translate(523.08 7277.689)" fill="#d8df25"/>
        </g>
        <path id="Trazado_138141" data-name="Trazado 138141" d="M-7.559-5.684a4.029,4.029,0,0,0,.952,2.1,2.7,2.7,0,0,0,2.051.74A2.768,2.768,0,0,0-2.19-3.933,4.471,4.471,0,0,0-1.377-6.68a4.772,4.772,0,0,0-.762-2.747,2.668,2.668,0,0,0-2.373-1.121,4.083,4.083,0,0,0-1.318.19,2.621,2.621,0,0,0-1.479,1.3l-3.75-.176,1.494-11.733h11.7v3.545H-6.548l-.762,4.644A8.728,8.728,0,0,1-5.8-13.608a6.388,6.388,0,0,1,2.212-.337,6.644,6.644,0,0,1,4.6,1.772A6.591,6.591,0,0,1,2.974-7.017a8.089,8.089,0,0,1-1.89,5.259A6.871,6.871,0,0,1-4.57.557a7.51,7.51,0,0,1-4.98-1.626,6.317,6.317,0,0,1-2.168-4.614ZM6.05-4.365h4.438V0H6.05Z" transform="translate(594 7358)" fill="#0f231a"/>
      </g>
    </g>
  </g>
</svg>
