<svg xmlns="http://www.w3.org/2000/svg" width="75.828" height="75.828" viewBox="0 0 75.828 75.828">
  <g id="Grupo_62091" data-name="Grupo 62091" transform="translate(-1105.563 -8189.172)">
    <g id="Grupo_61409" data-name="Grupo 61409" transform="translate(549 879)">
      <g id="Grupo_61401" data-name="Grupo 61401" transform="translate(39 38)">
        <path id="Trazado_5390" data-name="Trazado 5390" d="M1909.431,6466.172q1.863,0,3.716.183t3.68.546q1.827.363,3.609.9t3.5,1.253q1.72.713,3.364,1.591t3.191,1.913q1.548,1.034,2.989,2.216t2.757,2.5q1.317,1.317,2.5,2.756t2.217,2.988q1.035,1.549,1.913,3.192t1.591,3.364q.713,1.72,1.254,3.5t.9,3.609q.363,1.827.546,3.68t.183,3.717q0,1.863-.183,3.716t-.546,3.681q-.363,1.827-.9,3.609t-1.254,3.5q-.712,1.721-1.591,3.364t-1.913,3.191q-1.035,1.548-2.217,2.988t-2.5,2.757q-1.317,1.318-2.757,2.5t-2.989,2.217q-1.549,1.034-3.191,1.913t-3.364,1.59q-1.721.713-3.5,1.253t-3.609.9q-1.827.364-3.68.546t-3.716.183q-1.862,0-3.716-.183t-3.68-.546q-1.827-.363-3.609-.9t-3.5-1.253q-1.721-.713-3.364-1.59t-3.192-1.913q-1.549-1.035-2.988-2.217t-2.757-2.5q-1.318-1.318-2.5-2.757t-2.216-2.988q-1.034-1.549-1.913-3.191t-1.591-3.364q-.712-1.72-1.254-3.5t-.9-3.609q-.363-1.827-.546-3.681t-.182-3.716q0-1.863.182-3.717t.546-3.68q.363-1.826.9-3.609t1.254-3.5q.713-1.721,1.591-3.364t1.913-3.192q1.035-1.548,2.216-2.988t2.5-2.756q1.317-1.318,2.757-2.5t2.988-2.216q1.549-1.034,3.192-1.913t3.364-1.591q1.721-.713,3.5-1.253t3.609-.9q1.827-.364,3.68-.546T1909.431,6466.172Z" transform="translate(-1353.954 806)" fill="#a0a603"/>
        <path id="Trazado_89795" data-name="Trazado 89795" d="M35.613,0A35.613,35.613,0,1,1,0,35.613,35.57,35.57,0,0,1,35.613,0Z" transform="translate(519.864 7274.473)" fill="#fff"/>
        <circle id="Elipse_120" data-name="Elipse 120" cx="32.397" cy="32.397" r="32.397" transform="translate(523.08 7277.689)" fill="#d8df25"/>
      </g>
      <path id="Trazado_138143" data-name="Trazado 138143" d="M-7.383-6.167A3.412,3.412,0,0,0-6.57-3.735a2.937,2.937,0,0,0,2.249.864,2.937,2.937,0,0,0,2.249-.864A3.412,3.412,0,0,0-1.26-6.167a3.381,3.381,0,0,0-.828-2.468,2.989,2.989,0,0,0-2.234-.842,2.989,2.989,0,0,0-2.234.842A3.381,3.381,0,0,0-7.383-6.167Zm-4.336.278a6.505,6.505,0,0,1,.813-3.237,5.149,5.149,0,0,1,2.38-2.183,4.956,4.956,0,0,1-2-2.219,6.218,6.218,0,0,1-.461-2.234,5.213,5.213,0,0,1,1.743-3.948,6.924,6.924,0,0,1,4.922-1.633A6.924,6.924,0,0,1,.6-19.709a5.213,5.213,0,0,1,1.743,3.948,6.218,6.218,0,0,1-.461,2.234,4.266,4.266,0,0,1-2,2.073A5.886,5.886,0,0,1,2.241-9.126a6.649,6.649,0,0,1,.791,3.237A6.056,6.056,0,0,1,1.047-1.326,7.736,7.736,0,0,1-4.5.557,7.189,7.189,0,0,1-9.888-1.326,6.3,6.3,0,0,1-11.719-5.889ZM-7-15.293a2.6,2.6,0,0,0,.71,1.89,2.617,2.617,0,0,0,1.97.732,2.588,2.588,0,0,0,1.97-.732,2.632,2.632,0,0,0,.7-1.89,2.7,2.7,0,0,0-.7-1.97,2.633,2.633,0,0,0-1.97-.71,2.663,2.663,0,0,0-1.97.71A2.663,2.663,0,0,0-7-15.293ZM6.05-4.365h4.438V0H6.05Z" transform="translate(594 7358)" fill="#0f231a"/>
    </g>
  </g>
</svg>
