<svg xmlns="http://www.w3.org/2000/svg" width="540.161" height="468" viewBox="0 0 540.161 468">
  <g id="Grupo_61559" data-name="Grupo 61559" transform="translate(-37.452 -62.877)">
    <path id="Trazado_131310" data-name="Trazado 131310" d="M531.42,388.713a40.827,40.827,0,0,0-40.707,40.707h0a74.491,74.491,0,0,1-74.272,74.272H135.008c-53.067,0-96.485-43.418-96.485-96.485h0c0-53.066,43.418-96.485,96.485-96.485h0a19.42,19.42,0,0,0,19.364-19.363h0A19.422,19.422,0,0,0,135.008,272H84.522a47.208,47.208,0,0,1-47.07-47.07h0a47.209,47.209,0,0,1,46.981-47.07h45.929a40.827,40.827,0,0,0,40.706-40.707h0a74.492,74.492,0,0,1,74.274-74.272H480.933c53.067,0,96.485,43.419,96.485,96.485h0c0,53.066-43.418,96.485-96.485,96.485h0a19.42,19.42,0,0,0-19.363,19.364h0a19.42,19.42,0,0,0,19.363,19.363H531.42C593.011,294.574,593.011,388.713,531.42,388.713Z" transform="translate(0 0)" fill="#c6e3f1" fill-rule="evenodd"/>
    <path id="Trazado_131311" data-name="Trazado 131311" d="M201.456,124.41a1.354,1.354,0,0,0-1.083-2.349,1.336,1.336,0,0,0-.718.329q-1.024.915-2.02,1.856a1.352,1.352,0,1,0,1.856,1.967q.968-.915,1.964-1.8ZM323.873,434.052a1.354,1.354,0,0,0-.776,2.438,1.338,1.338,0,0,0,.834.266l1.123-.018,1.412-.037.2-.008a1.353,1.353,0,1,0-.117-2.7l-1.552.042-1.123.019Zm10.684-.586a1.353,1.353,0,0,0,.293,2.69l1.231-.127,1.489-.173a1.354,1.354,0,0,0-.356-2.684l-1.427.166-1.231.127Zm10.581-1.545a1.353,1.353,0,0,0,.539,2.652l.8-.158,1.254-.263.624-.139a1.353,1.353,0,1,0-.6-2.638l-.593.131-1.224.257-.8.158Zm10.357-2.576a1.352,1.352,0,1,0,.818,2.578l1.1-.339,1.165-.379.348-.118a1.353,1.353,0,0,0-.882-2.558l-.318.108-1.133.367-1.094.341Zm10.016-3.671a1.352,1.352,0,1,0,1.1,2.472l.914-.4,1.072-.485.513-.239a1.353,1.353,0,1,0-1.16-2.445l-.483.225-1.042.471-.912.4Zm9.526-4.79a1.354,1.354,0,0,0,.8,2.515,1.334,1.334,0,0,0,.573-.183l.4-.231.981-.583.966-.592a1.354,1.354,0,0,0-.816-2.5,1.34,1.34,0,0,0-.611.2l-.938.573-.95.565-.4.234ZM383.909,415a1.352,1.352,0,0,0,1.648,2.145l.59-.446.877-.682.694-.555a1.353,1.353,0,1,0-1.7-2.1l-.667.534-.85.661-.59.447ZM392,408.072a1.352,1.352,0,1,0,1.9,1.925l.546-.534.773-.77.618-.633a1.352,1.352,0,1,0-1.945-1.879l-.6.61-.748.748-.546.532Zm7.179-7.871a1.353,1.353,0,1,0,2.118,1.682l.393-.489.667-.849.626-.818a1.353,1.353,0,1,0-2.158-1.631l-.607.792-.647.825-.393.489Zm6.177-8.684a1.353,1.353,0,1,0,2.3,1.424l.219-.347.559-.916.648-1.09a1.353,1.353,0,0,0-2.349-1.344l-.615,1.037-.544.889-.219.347Zm5.119-9.353a1.353,1.353,0,1,0,2.446,1.156l.524-1.122.443-.977.177-.4a1.353,1.353,0,1,0-2.483-1.074l-.165.376-.429.95-.512,1.093Zm4.022-9.866a1.353,1.353,0,1,0,2.567.855l.32-.942.334-1.023.2-.634a1.353,1.353,0,0,0-2.586-.8l-.192.606-.325.995-.319.942Zm2.924-10.266a1.353,1.353,0,1,0,2.643.579l.178-.788.228-1.057.166-.826a1.352,1.352,0,1,0-2.653-.526l-.163.8-.221,1.029-.178.789Zm1.826-10.521a1.352,1.352,0,1,0,2.687.306l.08-.68.118-1.081.094-.957a1.353,1.353,0,1,0-2.694-.25l-.091.93-.114,1.053-.08.679Zm.734-10.655a1.354,1.354,0,0,0,2.606.529,1.384,1.384,0,0,0,.1-.5l.011-.632.008-1.094,0-1.006a1.352,1.352,0,1,0-2.7.022l0,.978-.008,1.067-.011.632Zm-.339-10.676a1.353,1.353,0,0,0,2.7-.238l-.055-.653-.1-1.1-.1-.968a1.353,1.353,0,1,0-2.69.29l.1.942.1,1.071.055.654Zm-1.4-10.59a1.352,1.352,0,1,0,2.657-.506l-.139-.75-.212-1.092-.174-.84a1.352,1.352,0,1,0-2.647.557l.166.814.208,1.065.14.751Zm-2.436-10.4a1.353,1.353,0,1,0,2.593-.769l-.268-.924-.325-1.074-.193-.62a1.353,1.353,0,1,0-2.578.822l.187.593.316,1.048.268.923Zm-3.456-10.12a1.352,1.352,0,1,0,2.511-1l-.478-1.184-.436-1.046-.133-.309a1.353,1.353,0,0,0-2.48,1.081l.122.283.426,1.019.469,1.159Zm-4.438-9.711a1.353,1.353,0,0,0,2.4-1.259l-.259-.5-.538-1.011-.493-.9A1.352,1.352,0,1,0,406.649,287l.48.879.524.985.258.5Zm-5.384-9.217a1.353,1.353,0,0,0,2.249-1.5l-.62-.938-.652-.964-.254-.366a1.353,1.353,0,1,0-2.216,1.552l.238.343.635.94.62.938Zm-6.29-8.639a1.353,1.353,0,0,0,2.094-1.715l-.451-.555-.755-.911-.539-.638a1.354,1.354,0,0,0-2.376.766,1.34,1.34,0,0,0,.32.992l.521.615.736.888.45.558Zm-7.121-7.967a1.353,1.353,0,0,0,2.272-1.273,1.338,1.338,0,0,0-.357-.635l-.354-.36-.858-.851-.733-.712a1.354,1.354,0,0,0-2.254,1.286,1.339,1.339,0,0,0,.381.666l.713.693.836.828.355.358Zm-7.876-7.217a1.353,1.353,0,0,0,1.718-2.09l-.414-.344-.961-.781-.751-.6a1.353,1.353,0,1,0-1.671,2.128l.727.577.938.762.414.344ZM372.7,249.9a1.351,1.351,0,1,0,1.5-2.248l-.726-.492-1.065-.7-.489-.315a1.353,1.353,0,1,0-1.452,2.282l.463.3,1.042.687.727.49Zm-9.122-5.594a1.352,1.352,0,1,0,1.3-2.371l-.25-.14-1.158-.628-1-.527a1.352,1.352,0,0,0-1.249,2.4l.975.515,1.132.612.25.14Zm-9.591-4.75a1.352,1.352,0,1,0,1.093-2.474l-1.29-.562L352.569,236a1.353,1.353,0,0,0-1.687,1.931,1.338,1.338,0,0,0,.648.565l1.2.507,1.263.549Zm-9.965-3.91a1.352,1.352,0,1,0,.881-2.557l-.2-.069q-1.193-.406-2.39-.8a1.355,1.355,0,0,0-1.629,1.892,1.337,1.337,0,0,0,.79.68c.787.258,1.567.522,2.349.787l.194.067Zm-10.257-3.21a1.353,1.353,0,0,0,.742-2.6q-1.309-.372-2.621-.732a1.353,1.353,0,0,0-.712,2.611c.865.236,1.727.478,2.591.723Zm-10.412-2.723a1.354,1.354,0,0,0,1.217-2.323,1.333,1.333,0,0,0-.59-.309c-.845-.154-1.794-.423-2.648-.618a1.352,1.352,0,1,0-.6,2.637c.842.193,1.785.46,2.621.612Zm-10.52-2.3a1.353,1.353,0,0,0,.526-2.654q-1.334-.265-2.667-.517a1.352,1.352,0,0,0-.506,2.657q1.325.252,2.647.515Zm-10.605-1.925a1.355,1.355,0,0,0,1.147-2.319,1.34,1.34,0,0,0-.708-.349q-1.342-.223-2.681-.432a1.352,1.352,0,1,0-.419,2.672q1.33.21,2.661.428Zm-10.662-1.6a1.353,1.353,0,0,0,.36-2.681q-1.344-.181-2.69-.355a1.353,1.353,0,0,0-.344,2.684q1.338.173,2.675.352Zm-10.709-1.309a1.352,1.352,0,1,0,.295-2.689c-.9-.1-1.8-.2-2.7-.288a1.354,1.354,0,0,0-1.013,2.377,1.322,1.322,0,0,0,.734.313l2.681.287Zm-10.74-1.056a1.355,1.355,0,0,0,.976-2.4,1.333,1.333,0,0,0-.74-.3c-.9-.08-1.8-.155-2.7-.23a1.353,1.353,0,0,0-.222,2.7q1.346.111,2.689.229Zm-10.808-.964a1.352,1.352,0,1,0,.295-2.689q-1.338-.143-2.675-.3a1.353,1.353,0,1,0-.322,2.686c.9.107,1.8.206,2.7.3Zm-10.794-1.41a1.353,1.353,0,0,0,.427-2.672c-.882-.139-1.775-.273-2.651-.433a1.353,1.353,0,1,0-.466,2.665c.891.16,1.794.3,2.69.441Zm-10.714-2a1.354,1.354,0,0,0,1.33-2.188,1.336,1.336,0,0,0-.748-.454q-1.311-.288-2.616-.6a1.353,1.353,0,1,0-.625,2.633q1.329.311,2.66.6Zm-10.577-2.708a1.352,1.352,0,1,0,.773-2.592c-.853-.253-1.708-.516-2.555-.788a1.353,1.353,0,1,0-.834,2.574q1.3.419,2.616.806Zm-10.345-3.568a1.352,1.352,0,1,0,1.008-2.51q-1.241-.5-2.466-1.022a1.354,1.354,0,0,0-1.538,2.153,1.4,1.4,0,0,0,.464.33q1.258.541,2.532,1.048Zm-9.951-4.621a1.353,1.353,0,1,0,1.29-2.379q-1.168-.629-2.316-1.3a1.353,1.353,0,1,0-1.375,2.33c.79.463,1.595.912,2.4,1.347Zm-9.3-5.9a1.355,1.355,0,0,0,2.1-1.512,1.334,1.334,0,0,0-.468-.647c-.708-.531-1.4-1.076-2.086-1.634a1.352,1.352,0,0,0-1.717,2.09c.715.582,1.436,1.149,2.173,1.7Zm-8.21-7.411a1.353,1.353,0,1,0,2.006-1.816c-.593-.652-1.164-1.315-1.722-1.995a1.353,1.353,0,1,0-2.1,1.709c.588.715,1.188,1.416,1.813,2.1Zm-6.508-9.009a1.353,1.353,0,0,0,2.372-1.3c-.423-.767-.822-1.54-1.2-2.332a1.353,1.353,0,1,0-2.447,1.152c.4.84.823,1.663,1.274,2.479Zm-4.107-10.357a1.353,1.353,0,1,0,2.628-.647q-.318-1.269-.551-2.555a1.354,1.354,0,0,0-2.634-.131,1.33,1.33,0,0,0-.031.6c.165.917.363,1.828.588,2.733Zm-1.248-11.079a1.352,1.352,0,1,0,2.7.069c.02-.873.064-1.743.139-2.614a1.352,1.352,0,1,0-2.694-.244c-.084.924-.128,1.862-.149,2.789Zm1.784-11.016a1.353,1.353,0,1,0,2.583.806c.241-.789.532-1.723.851-2.477a1.353,1.353,0,1,0-2.527-.968c-.333.862-.637,1.759-.907,2.639Zm4.493-10.149a1.353,1.353,0,1,0,2.342,1.355q.659-1.147,1.371-2.261a1.353,1.353,0,0,0-2.278-1.46q-.743,1.168-1.435,2.366Zm6.3-9.052a1.354,1.354,0,0,0,1.141,2.206,1.335,1.335,0,0,0,.953-.493c.562-.687,1.136-1.357,1.718-2.027a1.353,1.353,0,1,0-2.033-1.787C191.307,130.863,190.715,131.568,190.134,132.277Z" transform="translate(37.924 16.016)" fill="#fff" fill-rule="evenodd"/>
    <g id="Grupo_61541" data-name="Grupo 61541" transform="translate(197.304 156.929)">
      <path id="Trazado_131312" data-name="Trazado 131312" d="M210.158,212.257a.858.858,0,0,1,1.449.919c-.1.154-34.077,52.954-7.238,83.731a.856.856,0,0,1-1.288,1.127C175.387,266.277,210.059,212.413,210.158,212.257Z" transform="translate(-155.375 -116.602)" fill="#000618" fill-rule="evenodd"/>
      <path id="Trazado_131313" data-name="Trazado 131313" d="M284.573,206.664a.855.855,0,1,1,1.447-.912c.056.086,19.466,30.214-1.006,53.36a.855.855,0,0,1-1.281-1.133C303.343,235.805,284.625,206.748,284.573,206.664Z" transform="translate(-130.699 -118.364)" fill="#000618" fill-rule="evenodd"/>
      <path id="Trazado_131314" data-name="Trazado 131314" d="M215.637,184.275l-14.313,15.736a57.436,57.436,0,0,1,6.172,28.035c-.681,15.905-54.306,104.067,44.762,103.614s43.95-51.565,43.95-51.565,32.679-10.582,16.177-57.9S215.637,184.275,215.637,184.275Z" transform="translate(-155.363 -124.274)" fill="#000618" fill-rule="evenodd"/>
      <path id="Trazado_131315" data-name="Trazado 131315" d="M293.485,275.695c-.576-.577-.912-.889-.912-.889a21.3,21.3,0,0,0,2.966-1.32A89.256,89.256,0,0,0,304,262.307c13.511-21-.868-49.879-.868-49.879l-7.646-2.283s-15.225-5.452-19.314-6.816-51.352,1.59-64.758,26.811,1.527,61.786,1.527,61.786,55.732-1.8,58.912-2.027C274.224,289.729,283.386,286.161,293.485,275.695Z" transform="translate(-151.728 -118.986)" fill="#01020e" fill-rule="evenodd"/>
      <path id="Trazado_131316" data-name="Trazado 131316" d="M305.422,271.046c15.917,6.949,17.981,21.5,20.05,37.695,1.834,14.361,2.408,36.031-1.374,68.951s-63.947-43.427-63.947-43.427Z" transform="translate(-137.024 -100.582)" fill="#ef8871" fill-rule="evenodd"/>
      <path id="Trazado_131317" data-name="Trazado 131317" d="M238.055,272.391l-15.449-7.9s-16.323,4.062-24.675,14.559-33.643,100.216-34.6,111.191,6.48,52.789,20.082,52.789,20.366-91.416,20.366-91.416l11.108-34.264Z" transform="translate(-163.253 -102.357)" fill="#f4ad85" fill-rule="evenodd"/>
      <path id="Trazado_131318" data-name="Trazado 131318" d="M237.331,272.391l-15.449-7.9a61.142,61.142,0,0,0-11.28,4.333c2,.967,3.566,3.438,3.383,8.916-.477,14.318-22.311,68.957-27.082,84.228s-8.59,24.337-8.59,24.337l-9.944-20.856c-.9,3.37-1.717,6.527-2.441,9.4,3.721,20.046,8.347,47.527,8.976,63.237,2.306,3.06,4.907,4.939,7.788,4.939,13.6,0,20.366-91.416,20.366-91.416l11.108-34.264Z" transform="translate(-162.528 -102.357)" fill="#ef8871" fill-rule="evenodd"/>
      <path id="Trazado_131319" data-name="Trazado 131319" d="M269.6,255.194s41.053,14.632,52.647,20.143c-.02.022-2.216,2.315-4.709,14.9-2.5,12.647,0,31.02-2.623,49.154-1.9,13.1-10.769,79.392-15.547,115.171l-101.2-8.164c-.031-1.595-.1-3.511-.188-5.684,8.312,6.472,16.277,6.76,11.347-12.144-8.591-32.928-6.921-90.194-4.057-107.374s7.129-35.261,3.073-52.679C211.069,266.063,269.6,255.194,269.6,255.194Z" transform="translate(-153.852 -104.872)" fill="#d84f50" fill-rule="evenodd"/>
      <path id="Trazado_131320" data-name="Trazado 131320" d="M295.506,262.958c10.271,3.853,20.7,7.907,25.684,10.277-.02.022-2.216,2.315-4.709,14.9-2.5,12.647,0,31.02-2.623,49.154-.38,2.624-1.041,7.383-1.891,13.6-22.865,3.563-90.4,11.3-106.607,9.863a28.862,28.862,0,0,1-3.46-.522c0-17.868,1.038-33.479,2.314-41.132.072-.44.147-.881.222-1.32,5.721,16.884,77.741,26.321,77.741,26.321s11.943-26.415,8.84-36.2-17.424-9.51-17.424-9.51l.363-8.744s14.319-19.388,17.759-25.288C292.149,263.614,293.487,263.168,295.506,262.958Z" transform="translate(-152.792 -102.771)" fill="#c23e3e" fill-rule="evenodd"/>
      <path id="Trazado_131321" data-name="Trazado 131321" d="M300.979,265.338l.846.321c-1.823,7.357-4.267,15.988-7.679,21.073-3.076,4.583-6.669,8.807-11.886,11.831s-12.028,4.835-21.546,4.593a31.868,31.868,0,0,1-20.12-7.609,41.872,41.872,0,0,1-12.749-20.012c-2.621-9.146-5.09-12.195-5.932-13.021l1-.221c1.172,1.375,3.471,4.882,5.8,13a40.953,40.953,0,0,0,12.46,19.572,30.989,30.989,0,0,0,19.563,7.4c9.332.236,16-1.53,21.073-4.473s8.58-7.07,11.59-11.553c3.351-5,5.773-13.586,7.58-20.9Zm16.863,6.724c.257.111.506.22.75.327-1.975,3.5-4.756,10.845-7.315,26.218-3.065,18.425.447,26.734,3.136,30.231-.029.421-.06.841-.094,1.262-2.883-3.272-7.243-11.732-3.929-31.641,2.512-15.1,5.353-22.644,7.453-26.4ZM203.181,324.378q.1-.867.194-1.668c2.308-4.54,11.088-24.515,6.083-57.126.273-.085.559-.169.872-.258,5.755,37.3-6.419,58.332-6.7,58.817a.456.456,0,0,1-.1.125A.451.451,0,0,1,203.181,324.378Z" transform="translate(-152.445 -102.95)" fill="#b23539" fill-rule="evenodd"/>
      <path id="Trazado_131322" data-name="Trazado 131322" d="M260.46,220.633l.309,0a16.228,16.228,0,0,1,16.393,16.018l.206,32.869c5.959,2.178,13.089,4.818,19.767,7.369-10.507,22.688-22.9,37.681-42.7,33.386-27.126-5.883-26.161-28.66-34.423-37.058,7.717-1.672,16.77-3.491,24.627-5.027l-.2-31.161A16.283,16.283,0,0,1,260.46,220.633Z" transform="translate(-147.89 -114.228)" fill="#ef8871" fill-rule="evenodd"/>
      <path id="Trazado_131323" data-name="Trazado 131323" d="M271.565,230.366a15.88,15.88,0,0,1,1.006,5.473l.206,32.869c5.959,2.178,13.089,4.818,19.767,7.369-7.727,16.687-16.476,29.21-28.442,32.959,19.028-12.833,13.179-28.683,9.123-30.354s-36.259-10.7-36.259-10.7l3.08-.6-.2-31.161a16.32,16.32,0,0,1,5.821-12.594C254.253,223.542,262.8,226.2,271.565,230.366Z" transform="translate(-143.3 -113.419)" fill="#ea745d" fill-rule="evenodd"/>
      <path id="Trazado_131324" data-name="Trazado 131324" d="M283.387,196.13c.316,0,.63.011.942.033l.009,0h0a12.671,12.671,0,1,1-10.143,3.92c.174,3.748,1.374,8.258,6.165,8.088l-1.1-7.22C278.814,198.028,281.368,196.317,283.387,196.13Z" transform="translate(-134.164 -120.86)" fill="#ea745d" fill-rule="evenodd"/>
      <path id="Trazado_131325" data-name="Trazado 131325" d="M211.454,207.38c-.3.084-.6.175-.9.28l-.009,0h0a12.669,12.669,0,1,0,10.816,1.13c.812,3.665.834,8.331-3.836,9.421l-.827-7.258C216.366,208.016,213.454,207.032,211.454,207.38Z" transform="translate(-152.738 -117.833)" fill="#ea745d" fill-rule="evenodd"/>
      <path id="Trazado_131326" data-name="Trazado 131326" d="M248.266,152.448h0a43.5,43.5,0,0,1,48.712,37.265l5.2,39.1a43.5,43.5,0,0,1-37.268,48.71h0a43.494,43.494,0,0,1-48.706-37.266l-5.2-39.1A43.494,43.494,0,0,1,248.266,152.448Z" transform="translate(-150.431 -132.786)" fill="#f4ad85" fill-rule="evenodd"/>
      <path id="Trazado_131327" data-name="Trazado 131327" d="M248.266,152.448h0a43.514,43.514,0,0,1,48.074,33.664,18.066,18.066,0,0,1-1.98,6.365l-20.037-1.17s-13.188,25.213-40.277,31.339c-7.282,1.647-9.567,8.986-8.079,15.958,3.623,16.981,18.2,41.316,54.1,33.925a42.992,42.992,0,0,1-15.154,5h0a43.5,43.5,0,0,1-48.706-37.266l-5.2-39.1A43.494,43.494,0,0,1,248.266,152.448Z" transform="translate(-150.431 -132.786)" fill="#ef8871" fill-rule="evenodd"/>
      <path id="Trazado_131328" data-name="Trazado 131328" d="M235.092,220.2a5.7,5.7,0,1,1-4.779,6.5A5.7,5.7,0,0,1,235.092,220.2Z" transform="translate(-145.119 -114.363)" fill="#ea745d" fill-rule="evenodd"/>
      <path id="Trazado_131329" data-name="Trazado 131329" d="M271.881,214.375a5.7,5.7,0,1,1-4.779,6.5A5.707,5.707,0,0,1,271.881,214.375Z" transform="translate(-135.161 -115.939)" fill="#ea745d" fill-rule="evenodd"/>
      <path id="Trazado_131330" data-name="Trazado 131330" d="M229.2,203.2a1.629,1.629,0,0,0-.4,3.233,16.52,16.52,0,0,0,4.67-.132,13.081,13.081,0,0,0,8.155-4.48,1.63,1.63,0,0,0-2.513-2.075C236.728,202.627,232.776,203.575,229.2,203.2Z" transform="translate(-145.898 -120.042)" fill="#01020e" fill-rule="evenodd"/>
      <path id="Trazado_131331" data-name="Trazado 131331" d="M288.625,278.028s1.656-.239,2.029,1.058-5.116,8.277-5.474,8.516-11.243-1.133-11.243-1.133-.574-.538-.452-.95a2.026,2.026,0,0,1,.526-.775Z" transform="translate(-133.42 -98.696)" fill="#000618" fill-rule="evenodd"/>
      <path id="Trazado_131332" data-name="Trazado 131332" d="M274.31,193.138c-3.559-.644-7.547-.064-10.168,2.637A1.63,1.63,0,1,1,261.8,193.5a13.075,13.075,0,0,1,8.493-3.8,16.534,16.534,0,0,1,4.661.248,1.629,1.629,0,0,1-.649,3.192Z" transform="translate(-136.701 -122.617)" fill="#01020e" fill-rule="evenodd"/>
      <path id="Trazado_131333" data-name="Trazado 131333" d="M225.887,224.844s.382,2.874.737,5.543-4.765,9.808-6.811,10.079l-1.3-9.738s-1.463-4.351-6.976-3.615c-19.51-17.2-21.388-48.377-5.458-66.792s54.588-24.6,61.661-23.247,15.581,11.919,15.581,11.919,5.065-5.9,10.756-3.939,28.029,33.241,29.149,41.657-12.951,27.26-12.951,27.26c-5.515.733-5.788,5.314-5.788,5.314l.806,6.055c-2.046.273-3.555-2.316-3.91-4.985s-.738-5.541-.738-5.541c-17.994-5.283-27.753-27.251-27.753-27.251S254.147,225.216,225.887,224.844Z" transform="translate(-154.557 -136.894)" fill="#000618" fill-rule="evenodd"/>
      <path id="Trazado_131334" data-name="Trazado 131334" d="M195.381,190.277a47.533,47.533,0,0,1,5.566-22.779c17.642,13.667,46.14,22.819,69.876-29.611a25.836,25.836,0,0,1,4.5,2.917C266.126,167.467,242.64,214.029,195.381,190.277Z" transform="translate(-154.556 -136.625)" fill="#0f1630" fill-rule="evenodd"/>
      <path id="Trazado_131335" data-name="Trazado 131335" d="M225.6,215.2s.382,2.874.737,5.543-4.765,9.808-6.811,10.079l-1.3-9.738s-1.463-4.351-6.976-3.615a47.881,47.881,0,0,1-14.795-25.015c.025.018,33.42,23.213,74.532-19.943,0,0,18.81,29.335,46.329,20.6a126.471,126.471,0,0,1-7.327,11.219c-5.515.733-5.788,5.314-5.788,5.314l.807,6.055c-2.047.273-3.557-2.316-3.911-4.985s-.738-5.541-.738-5.541c-17.994-5.283-27.753-27.251-27.753-27.251S253.855,215.575,225.6,215.2Z" transform="translate(-154.265 -127.252)" fill="#01020e" fill-rule="evenodd"/>
      <path id="Trazado_131336" data-name="Trazado 131336" d="M285.572,258.77l2.815.767s1.648-14.688,1.634-16.111a17.023,17.023,0,0,0-1.828-5.868c-1.085-2.4-5.066-11.467-5.28-11.756s-2.788,1.944-1.628,5.916,3.126,9.35,3.108,10.5-2.647,11.324-2.647,11.324Z" transform="translate(-131.385 -112.835)" fill="#ef8871" fill-rule="evenodd"/>
      <path id="Trazado_131337" data-name="Trazado 131337" d="M293.494,254.693a6.257,6.257,0,0,0-3.28-5.452c-2.821-1.712-9.483-6.988-10.9-7.605a4.967,4.967,0,0,0-4.735.738,83.589,83.589,0,0,0-8.14,5.906c-1.122,1.166-3.92,8.353-4.263,9.108s2.471,1.438,4.717-.262c0,0-1.175,2.358-1.553,3.158s-.9,6.876-.943,8.108,3.36.616,4.515-2.216c0,0-.186,2.039-.187,2.674s1.948.4,1.948.4,2.247,12.187,2.751,13.708,19.852,71.093,19.852,71.093l27.988-1.69s-30.532-68.282-30.734-69.286C288.8,274.478,293.531,261.915,293.494,254.693Z" transform="translate(-136.485 -108.63)" fill="#f4ad85" fill-rule="evenodd"/>
      <path id="Trazado_131338" data-name="Trazado 131338" d="M268.854,265.623l.119.644h0l.043.234,0,.023,0,.01.006.033.006.034.006.034.006.029v.005l.008.036.011.071.008.037v0l.022.111.008.039c.6,3.21,2.1,11.157,2.5,12.366.372,1.128,11.108,39.676,16.632,59.525a80.261,80.261,0,0,0,10.688-5.261s-21.654-50.4-22.159-52.39.685-3.562.267-4.1-2.089-1.313-2.506-2.745-1.432-6.5-.775-8.53c.506-1.565,2.15-1.374,2.876-1.2a19.055,19.055,0,0,0,2.123.532c1.085.144,1-.52,1-.52.239-2.244,2.418-5.44,2.418-5.44-1.187-.645-3.025-3.7-3.025-3.7-1.212-.523-2.164-1.2-3.111-.529a23.432,23.432,0,0,0-3.59,3.646,35.487,35.487,0,0,1-.728,4.718C271.267,265.13,268.854,265.623,268.854,265.623Z" transform="translate(-134.669 -105.009)" fill="#ef8871" fill-rule="evenodd"/>
      <g id="Grupo_61540" data-name="Grupo 61540" transform="translate(0.416 223.544)">
        <path id="Trazado_131339" data-name="Trazado 131339" d="M171.535,417.187h202.9a5.909,5.909,0,0,0,5.667-6.1h0a5.91,5.91,0,0,0-5.667-6.1h-202.9a5.911,5.911,0,0,0-5.667,6.1h0A5.911,5.911,0,0,0,171.535,417.187Z" transform="translate(-162.96 -287.869)" fill="#000618" fill-rule="evenodd"/>
        <path id="Trazado_131340" data-name="Trazado 131340" d="M378.738,312.819H168.473a4.785,4.785,0,0,0-4.83,5.685l16.07,106.734a6.873,6.873,0,0,0,6.541,5.686h174.7a6.875,6.875,0,0,0,6.543-5.686L383.568,318.5A4.785,4.785,0,0,0,378.738,312.819Z" transform="translate(-163.58 -312.819)" fill="#000618" fill-rule="evenodd"/>
        <path id="Trazado_131341" data-name="Trazado 131341" d="M373.021,316.789H172.107a4.572,4.572,0,0,0-4.615,5.432l15.356,101.986a6.567,6.567,0,0,0,6.25,5.433H356.026a6.567,6.567,0,0,0,6.252-5.433l15.356-101.986A4.572,4.572,0,0,0,373.021,316.789Z" transform="translate(-162.537 -311.744)" fill="#0f1630" fill-rule="evenodd"/>
        <path id="Trazado_131342" data-name="Trazado 131342" d="M176.465,397.993,180.4,424.15a6.567,6.567,0,0,0,6.25,5.433H353.581a6.567,6.567,0,0,0,6.252-5.433l15.356-101.986A4.565,4.565,0,0,0,372.218,317C349.221,356.673,292.708,421.653,176.465,397.993Z" transform="translate(-160.092 -311.687)" fill="#000618" fill-rule="evenodd"/>
        <path id="Trazado_131343" data-name="Trazado 131343" d="M254.928,392.212c12.309,0,22.347-8.38,22.347-18.655S267.237,354.9,254.928,354.9s-22.346,8.38-22.346,18.654S242.62,392.212,254.928,392.212Z" transform="translate(-144.902 -301.427)" fill="#000618" fill-rule="evenodd"/>
        <path id="Trazado_131344" data-name="Trazado 131344" d="M253.785,358.429c6.252,0,11.713,2.82,14.66,7.019l-25.98,17.718A13.25,13.25,0,0,1,236.8,372.6c0-7.827,7.6-14.174,16.98-14.174Zm13.794,22.44-7.8-4.295-13.012,8.939a19.759,19.759,0,0,0,7.019,1.264A18.17,18.17,0,0,0,267.58,380.869Z" transform="translate(-143.759 -300.473)" fill="#fff" fill-rule="evenodd"/>
      </g>
      <path id="Trazado_131345" data-name="Trazado 131345" d="M268.612,201.644h0a3.633,3.633,0,0,0-3.01,4.147l.743,4.67a3.634,3.634,0,0,0,4.149,3.01h0a3.635,3.635,0,0,0,3.01-4.15l-.742-4.668A3.635,3.635,0,0,0,268.612,201.644Z" transform="translate(-135.561 -119.38)" fill="#01020e" fill-rule="evenodd"/>
      <path id="Trazado_131346" data-name="Trazado 131346" d="M234.429,206.823h0a3.633,3.633,0,0,0-3.01,4.149l.743,4.668a3.635,3.635,0,0,0,4.15,3.01h0a3.633,3.633,0,0,0,3.008-4.15l-.742-4.668A3.633,3.633,0,0,0,234.429,206.823Z" transform="translate(-144.814 -117.978)" fill="#01020e" fill-rule="evenodd"/>
      <path id="Trazado_131347" data-name="Trazado 131347" d="M267.942,234.465a.868.868,0,0,0-.269-1.4,1.53,1.53,0,0,0-1.705.574c-.008.013-2.982,4.3-12.167,2.014a1.576,1.576,0,0,0-1.652.765.837.837,0,0,0,.5,1.3C263.74,240.488,267.93,234.482,267.942,234.465Z" transform="translate(-139.229 -110.884)" fill="#ef8871" fill-rule="evenodd"/>
      <path id="Trazado_131348" data-name="Trazado 131348" d="M289.7,278.282a.817.817,0,0,1,.652.783c.089.715-4.238,6.338-16.346,6.764,0,0-.29-.09-.334-.276s.146-.394.146-.394l-.062-.226s-.436.313-.436.686,1.79,7.852,2.149,9.731,4.037,1.445,7.149.691,10.529-3.35,12.477-7.371a3.89,3.89,0,0,0-.06-1.881c-.3-.865-4.056-7.829-4.25-8.247a1.162,1.162,0,0,0-1.207-.543Z" transform="translate(-133.46 -98.704)" fill="#0f1630" fill-rule="evenodd"/>
      <path id="Trazado_131349" data-name="Trazado 131349" d="M279.753,283.682a34.186,34.186,0,0,1-5.749.666s-.29-.09-.334-.276.146-.394.146-.394l-.062-.226s-.436.313-.436.686,1.79,7.852,2.149,9.731,4.037,1.445,7.149.691c.441-.107.972-.25,1.562-.432l-4.425-10.445Z" transform="translate(-133.46 -97.224)" fill="#000618" fill-rule="evenodd"/>
    </g>
    <g id="Grupo_61542" data-name="Grupo 61542" transform="translate(113.898 503.693)">
      <path id="Trazado_131350" data-name="Trazado 131350" d="M119.752,419.136H454.917a7.677,7.677,0,0,1,7.653,7.655h0a7.677,7.677,0,0,1-7.653,7.655H119.752a7.677,7.677,0,0,1-7.655-7.655h0A7.677,7.677,0,0,1,119.752,419.136Z" transform="translate(-93.693 -407.261)" fill="#000618" fill-rule="evenodd"/>
      <path id="Rectángulo_18619" data-name="Rectángulo 18619" d="M7.684,0H379.6a7.684,7.684,0,0,1,7.684,7.684v4.162a7.684,7.684,0,0,1-7.684,7.684H7.685A7.685,7.685,0,0,1,0,11.845V7.684A7.684,7.684,0,0,1,7.684,0Z" transform="translate(0 0)" fill="#be865e"/>
      <rect id="Rectángulo_18620" data-name="Rectángulo 18620" width="20.316" height="19.529" transform="translate(232.666 0)" fill="#915e40"/>
      <rect id="Rectángulo_18621" data-name="Rectángulo 18621" width="10.554" height="19.529" transform="translate(263.536 0)" fill="#915e40"/>
      <rect id="Rectángulo_18622" data-name="Rectángulo 18622" width="5.278" height="19.529" transform="translate(285.172 0)" fill="#915e40"/>
      <rect id="Rectángulo_18623" data-name="Rectángulo 18623" width="22.726" height="19.529" transform="translate(308.522 0)" fill="#915e40"/>
      <rect id="Rectángulo_18624" data-name="Rectángulo 18624" width="11.363" height="19.529" transform="translate(348.381 0)" fill="#915e40"/>
      <rect id="Rectángulo_18625" data-name="Rectángulo 18625" width="190.342" height="11.609" rx="4.567" transform="translate(4.749 3.17)" fill="#d49d80"/>
    </g>
    <g id="Grupo_61543" data-name="Grupo 61543" transform="translate(228.034 88.467)">
      <path id="Trazado_131351" data-name="Trazado 131351" d="M199.184,102.576l4.178,24.05,54.219-43.61L200.967,96.937Z" transform="translate(-184.256 -83.016)" fill="#d5eaf5" fill-rule="evenodd"/>
      <path id="Trazado_131352" data-name="Trazado 131352" d="M202.472,121.827l20.909-16.817a33.625,33.625,0,0,1,.977-4.264l-17.567,4.721Z" transform="translate(-183.366 -78.217)" fill="#ecf6fc" fill-rule="evenodd"/>
      <path id="Trazado_131353" data-name="Trazado 131353" d="M260.761,83.016,187.436,96.579l14.927,6Z" transform="translate(-187.436 -83.016)" fill="#fff" fill-rule="evenodd"/>
      <path id="Trazado_131354" data-name="Trazado 131354" d="M255.771,83.016l-32.951,43.779-16.949-16.53Z" transform="translate(-182.446 -83.016)" fill="#fff" fill-rule="evenodd"/>
    </g>
    <g id="Grupo_61545" data-name="Grupo 61545" transform="translate(110.013 285.852)">
      <path id="Trazado_131355" data-name="Trazado 131355" d="M97.07,265.567a95.814,95.814,0,0,1,22.219-2.6h0A19.42,19.42,0,0,0,138.652,243.6h0a19.18,19.18,0,0,0-.194-2.732h30.621a8.425,8.425,0,0,1,8.4,8.4v59.256a.939.939,0,0,1-1.6.665l-14.314-14.315H105.47a8.424,8.424,0,0,1-8.4-8.4Z" transform="translate(-93.876 -237.674)" fill="#a6cae4" fill-rule="evenodd"/>
      <path id="Trazado_131356" data-name="Trazado 131356" d="M102.956,238.354h63.608a8.424,8.424,0,0,1,8.4,8.4V306.01a.938.938,0,0,1-1.6.663l-14.314-14.315H102.956a8.424,8.424,0,0,1-8.4-8.4V246.753A8.424,8.424,0,0,1,102.956,238.354Z" transform="translate(-94.556 -238.354)" fill="#dc5645" fill-rule="evenodd"/>
      <g id="Grupo_61544" data-name="Grupo 61544" transform="translate(11.155 5.422)">
        <path id="Trazado_131357" data-name="Trazado 131357" d="M137.906,252.348l10.524.042a9.536,9.536,0,0,1,6.865,2.976,10.219,10.219,0,0,1,2.829,7.075v.036c0,.043,0,.086-.006.131a10.087,10.087,0,0,1-2.856,6.89,9.57,9.57,0,0,1-6.863,2.935h-.032c-.041,0-.081,0-.121-.006l-10.412-.041-18.561,9.3a2.493,2.493,0,0,1-2.524-.141,2.588,2.588,0,0,1-.884-.963,2.637,2.637,0,0,1-.3-1.248l.125-34.088a2.644,2.644,0,0,1,.311-1.259,2.6,2.6,0,0,1,.888-.954,2.546,2.546,0,0,1,1.252-.4,2.5,2.5,0,0,1,1.277.277l.1.056,18.392,9.39Zm10.524,2.681-10.843-.042a1.325,1.325,0,0,1-.6-.146l-18.662-9.529L118.2,279.27,136.9,269.9a1.31,1.31,0,0,1,.633-.159l10.726.042.142-.005a6.938,6.938,0,0,0,4.97-2.128,7.455,7.455,0,0,0,2.111-5.076l0-.137a7.552,7.552,0,0,0-2.085-5.242A6.9,6.9,0,0,0,148.429,255.029Z" transform="translate(-100.025 -242.621)" fill="#fff" fill-rule="evenodd"/>
        <path id="Trazado_131358" data-name="Trazado 131358" d="M145.072,264.761v11.881a4.248,4.248,0,0,1-4.235,4.235h0a4.248,4.248,0,0,1-4.235-4.235v-11.55l6.069.023A8.094,8.094,0,0,0,145.072,264.761Z" transform="translate(-94.33 -236.629)" fill="#fff" fill-rule="evenodd"/>
        <rect id="Rectángulo_18626" data-name="Rectángulo 18626" width="1.987" height="17.404" transform="translate(39.526 11.056)" fill="#fff"/>
        <rect id="Rectángulo_18627" data-name="Rectángulo 18627" width="1.987" height="17.404" transform="translate(45.893 11.056)" fill="#fff"/>
        <path id="Trazado_131359" data-name="Trazado 131359" d="M115.046,256.1a1.323,1.323,0,0,1-.446,2.607l-10.163-1.77a1.323,1.323,0,1,1,.445-2.607l10.164,1.77Zm-.8,16.407a1.322,1.322,0,0,1,1.15,2.38l-6.7,3.233a1.321,1.321,0,1,1-1.149-2.38l6.7-3.233Zm1.15-23.95a1.322,1.322,0,1,1-1.15,2.38l-7.653-3.7a1.321,1.321,0,0,1,1.149-2.38l7.655,3.7Zm-.8,16.181a1.322,1.322,0,1,1,.446,2.606l-10.164,1.77a1.323,1.323,0,1,1-.445-2.607Z" transform="translate(-103.335 -242.051)" fill="#fff" fill-rule="evenodd"/>
      </g>
    </g>
    <g id="Grupo_61550" data-name="Grupo 61550" transform="translate(394.026 134.425)">
      <path id="Trazado_131360" data-name="Trazado 131360" d="M395.976,119.184H329.8a8.763,8.763,0,0,0-8.738,8.738v61.65a.975.975,0,0,0,1.665.69l14.894-14.892h58.358a8.764,8.764,0,0,0,8.738-8.74V127.922A8.764,8.764,0,0,0,395.976,119.184Z" transform="translate(-317.26 -119.184)" fill="#a6cae4" fill-rule="evenodd"/>
      <path id="Trazado_131361" data-name="Trazado 131361" d="M392.984,119.184H326.809a8.764,8.764,0,0,0-8.74,8.738v61.65a.975.975,0,0,0,1.666.69l14.892-14.892h58.357a8.764,8.764,0,0,0,8.74-8.74V127.922A8.763,8.763,0,0,0,392.984,119.184Z" transform="translate(-318.069 -119.184)" fill="#dc5645" fill-rule="evenodd"/>
      <g id="Grupo_61548" data-name="Grupo 61548" transform="translate(16.377 14.298)">
        <g id="Grupo_61546" data-name="Grupo 61546">
          <path id="Trazado_131362" data-name="Trazado 131362" d="M339.324,143.031a6.3,6.3,0,1,0-6.3-6.3A6.307,6.307,0,0,0,339.324,143.031Z" transform="translate(-330.397 -130.436)" fill="#f09a9b" fill-rule="evenodd"/>
          <path id="Trazado_131363" data-name="Trazado 131363" d="M339.885,141.917h0a8.955,8.955,0,0,1,8.929,8.928v8.71a1,1,0,0,1-1,1H331.954a1,1,0,0,1-1-1v-8.71A8.955,8.955,0,0,1,339.885,141.917Z" transform="translate(-330.957 -127.328)" fill="#f09a9b" fill-rule="evenodd"/>
        </g>
        <g id="Grupo_61547" data-name="Grupo 61547" transform="translate(33.048)">
          <path id="Trazado_131364" data-name="Trazado 131364" d="M365.331,143.031a6.3,6.3,0,1,0-6.3-6.3A6.309,6.309,0,0,0,365.331,143.031Z" transform="translate(-356.405 -130.436)" fill="#f09a9b" fill-rule="evenodd"/>
          <path id="Trazado_131365" data-name="Trazado 131365" d="M365.892,141.917h0a8.956,8.956,0,0,1,8.929,8.928v8.71a1,1,0,0,1-1,1H357.962a1,1,0,0,1-1-1v-8.71A8.953,8.953,0,0,1,365.892,141.917Z" transform="translate(-356.965 -127.328)" fill="#f09a9b" fill-rule="evenodd"/>
        </g>
      </g>
      <g id="Grupo_61549" data-name="Grupo 61549" transform="translate(31.088 7.559)">
        <path id="Trazado_131366" data-name="Trazado 131366" d="M352.6,140.281a7.574,7.574,0,1,0-7.574-7.575A7.588,7.588,0,0,0,352.6,140.281Z" transform="translate(-341.861 -125.133)" fill="#fff" fill-rule="evenodd"/>
        <path id="Trazado_131367" data-name="Trazado 131367" d="M353.275,138.942h0a10.77,10.77,0,0,1,10.738,10.74v10.477a1.2,1.2,0,0,1-1.2,1.2H343.736a1.2,1.2,0,0,1-1.2-1.2V149.682A10.771,10.771,0,0,1,353.275,138.942Z" transform="translate(-342.535 -121.395)" fill="#fff" fill-rule="evenodd"/>
      </g>
    </g>
    <path id="Trazado_131368" data-name="Trazado 131368" d="M428.215,264.583a22.486,22.486,0,1,1-15.9,6.586,22.418,22.418,0,0,1,15.9-6.586Zm20.049,23.684h-9.176a44.53,44.53,0,0,1-.765,7.287,27.378,27.378,0,0,1,6.733,2.463,19.973,19.973,0,0,0,3.207-9.75Zm-11.575,0h-7.275v6.177a44.868,44.868,0,0,1,6.561.631,42.094,42.094,0,0,0,.714-6.808Zm-9.674,0h-7.273a41.806,41.806,0,0,0,.713,6.808,44.883,44.883,0,0,1,6.56-.631v-6.177Zm-9.674,0h-9.177a19.989,19.989,0,0,0,3.208,9.75,27.34,27.34,0,0,1,6.733-2.463,44.526,44.526,0,0,1-.765-7.287Zm-9.177-2.4h9.177a45.283,45.283,0,0,1,.569-6.19,26.588,26.588,0,0,1-7.061-2.708,19.976,19.976,0,0,0-2.685,8.9Zm12.1-5.7a42.811,42.811,0,0,0-.518,5.7h7.273v-5.032a44.913,44.913,0,0,1-6.755-.666Zm15.909,0a44.913,44.913,0,0,1-6.755.666v5.032h7.275a42.6,42.6,0,0,0-.52-5.7Zm2.917,5.7h9.177a19.973,19.973,0,0,0-2.682-8.9,26.64,26.64,0,0,1-7.064,2.708,45.067,45.067,0,0,1,.569,6.19ZM429.414,267.2v11.235a42.935,42.935,0,0,0,6.3-.62,27.553,27.553,0,0,0-1.738-5.3c-.854-1.873-2.427-4.539-4.562-5.313Zm0,29.644v10.089c2.135-.775,3.708-3.44,4.562-5.314a26.309,26.309,0,0,0,1.469-4.2,42.827,42.827,0,0,0-6.031-.572Zm-2.4,10.089V296.844a42.862,42.862,0,0,0-6.032.572,26.066,26.066,0,0,0,1.471,4.2c.851,1.875,2.427,4.54,4.56,5.314Zm0-28.5V267.2c-2.133.774-3.709,3.44-4.562,5.313a27.557,27.557,0,0,0-1.74,5.3,42.935,42.935,0,0,0,6.3.62Zm-14.834-3.466a24.437,24.437,0,0,0,6.188,2.352,30,30,0,0,1,1.906-5.8,17.723,17.723,0,0,1,2.22-3.712,20.16,20.16,0,0,0-10.314,7.162Zm25.879,2.352a24.437,24.437,0,0,0,6.188-2.352,20.31,20.31,0,0,0-1.831-2.1,20.087,20.087,0,0,0-8.482-5.057,17.838,17.838,0,0,1,2.221,3.712,30.252,30.252,0,0,1,1.9,5.8Zm5.552,22.644a25.241,25.241,0,0,0-5.815-2.072,29.1,29.1,0,0,1-1.641,4.721,17.733,17.733,0,0,1-2.222,3.713,20.089,20.089,0,0,0,8.483-5.056q.625-.627,1.194-1.3Zm-24.979-2.072a25.064,25.064,0,0,0-5.815,2.072q.568.677,1.2,1.3a20.062,20.062,0,0,0,8.482,5.056,17.784,17.784,0,0,1-2.221-3.712A29.046,29.046,0,0,1,418.632,297.893Z" transform="translate(99.685 54.598)" fill="#fff" fill-rule="evenodd"/>
    <path id="Trazado_131369" data-name="Trazado 131369" d="M78.333,186.507a8.178,8.178,0,0,1,3.23-3.366,4.994,4.994,0,0,0,2.444-3.278,21.169,21.169,0,0,0,.5-5.493,1.26,1.26,0,0,1,1.259-1.259h2.155a2.236,2.236,0,0,1,.648.1,4.657,4.657,0,0,1,2.338,2.179,8.173,8.173,0,0,1,1.019,3.994,9.138,9.138,0,0,1-.422,2.726c-.192.612-.722,2.4-.475,3.013a.986.986,0,0,0,.367.051H96.8a7.092,7.092,0,0,1,1.835.227,4.327,4.327,0,0,1,2.173,1.292,4.182,4.182,0,0,1,.983,2.841,7.37,7.37,0,0,1-.2,1.624c.78,2.008.936,4.5-.647,6.148a5,5,0,0,1-1.719,4.483,5.3,5.3,0,0,1-5.2,3.859h-9.91a8.336,8.336,0,0,1-4.76-1.937,2.857,2.857,0,0,1-.741,1.261l-.044.041a2.788,2.788,0,0,1-1.92.766h-4.5a2.807,2.807,0,0,1-2.8-2.8V188.751a2.8,2.8,0,0,1,.841-2l.041-.038a2.8,2.8,0,0,1,1.923-.766h4.5a2.8,2.8,0,0,1,1.675.558Zm1.128,13.975c1.136,1.146,3.041,2.648,4.662,2.648h9.91a2.9,2.9,0,0,0,2.888-2.4,1.259,1.259,0,0,1,.67-.87c.914-.457.942-1.962.811-2.8a1.248,1.248,0,0,1,.485-1.272c1.2-.879.79-2.792.28-3.928a1.236,1.236,0,0,1-.107-.919,5.5,5.5,0,0,0,.213-1.4,1.788,1.788,0,0,0-.355-1.184,1.9,1.9,0,0,0-.935-.518,4.586,4.586,0,0,0-1.183-.139H91.394a2.588,2.588,0,0,1-2.675-1.582c-.564-1.363-.037-3.413.38-4.75a6.646,6.646,0,0,0,.309-1.977,5.614,5.614,0,0,0-.69-2.754,2.853,2.853,0,0,0-.865-1h-.84a19.7,19.7,0,0,1-.585,4.912,7.414,7.414,0,0,1-3.672,4.815c-1.864,1-2.976,3.442-3.295,5.469v9.657Zm-2.8-12.016h-4.5a.263.263,0,0,0-.173.055l-.028.032a.278.278,0,0,0-.085.2v14.225a.287.287,0,0,0,.085.2.283.283,0,0,0,.2.084h4.5a.256.256,0,0,0,.169-.052l.031-.032a.289.289,0,0,0,.085-.2V188.751a.285.285,0,0,0-.086-.2A.282.282,0,0,0,76.658,188.466Z" transform="translate(8.634 29.838)" fill="#fff" fill-rule="evenodd"/>
    <g id="Grupo_61551" data-name="Grupo 61551" transform="translate(443.896 97.845)">
      <rect id="Rectángulo_18628" data-name="Rectángulo 18628" width="7.159" height="7.159" rx="1.314" transform="translate(0 14.435)" fill="#fff"/>
      <rect id="Rectángulo_18629" data-name="Rectángulo 18629" width="7.159" height="7.159" rx="1.314" transform="translate(13.242 14.435)" fill="#a6cae4"/>
      <path id="Rectángulo_18630" data-name="Rectángulo 18630" d="M1.314,0H5.843A1.314,1.314,0,0,1,7.157,1.314v4.53A1.314,1.314,0,0,1,5.843,7.159H1.313A1.313,1.313,0,0,1,0,5.845V1.314A1.314,1.314,0,0,1,1.314,0Z" transform="translate(26.485 14.435)" fill="#fff"/>
      <rect id="Rectángulo_18631" data-name="Rectángulo 18631" width="7.159" height="7.159" rx="1.314" transform="translate(39.726 14.435)" fill="#a6cae4"/>
      <rect id="Rectángulo_18632" data-name="Rectángulo 18632" width="7.157" height="7.159" rx="1.314" transform="translate(52.969 14.435)" fill="#fff"/>
      <rect id="Rectángulo_18633" data-name="Rectángulo 18633" width="7.159" height="7.159" rx="1.314" transform="translate(66.211 14.435)" fill="#fff"/>
      <rect id="Rectángulo_18634" data-name="Rectángulo 18634" width="7.159" height="7.159" rx="1.314" transform="translate(79.452 14.435)" fill="#fff"/>
      <rect id="Rectángulo_18635" data-name="Rectángulo 18635" width="7.159" height="7.157" rx="1.314" transform="translate(40.205)" fill="#fff"/>
      <rect id="Rectángulo_18636" data-name="Rectángulo 18636" width="7.159" height="7.157" rx="1.314" transform="translate(53.448)" fill="#a6cae4"/>
      <rect id="Rectángulo_18637" data-name="Rectángulo 18637" width="7.159" height="7.157" rx="1.314" transform="translate(66.69)" fill="#fff"/>
      <path id="Rectángulo_18638" data-name="Rectángulo 18638" d="M1.314,0H5.843A1.314,1.314,0,0,1,7.157,1.314V5.844A1.314,1.314,0,0,1,5.844,7.157H1.313A1.313,1.313,0,0,1,0,5.844V1.314A1.314,1.314,0,0,1,1.314,0Z" transform="translate(52.969 29.945)" fill="#fff"/>
      <path id="Rectángulo_18639" data-name="Rectángulo 18639" d="M1.313,0h4.53A1.314,1.314,0,0,1,7.157,1.314v4.53A1.313,1.313,0,0,1,5.844,7.157H1.314A1.314,1.314,0,0,1,0,5.844V1.313A1.313,1.313,0,0,1,1.313,0Z" transform="translate(66.211 29.945)" fill="#a6cae4"/>
    </g>
    <path id="Trazado_131370" data-name="Trazado 131370" d="M148.042,193.944h0a9.838,9.838,0,0,1,13.876,0l.943.942.942-.942a9.84,9.84,0,0,1,13.877,0h0a9.84,9.84,0,0,1,0,13.877l-.942.942L162.861,222.64l-13.877-13.877-.942-.942A9.84,9.84,0,0,1,148.042,193.944Z" transform="translate(29.159 34.702)" fill="#fff" fill-rule="evenodd"/>
    <g id="Grupo_61557" data-name="Grupo 61557" transform="translate(122.237 387.922)">
      <g id="Grupo_61555" data-name="Grupo 61555" transform="translate(0 0)">
        <g id="Grupo_61552" data-name="Grupo 61552" transform="translate(19.441)">
          <path id="Trazado_131371" data-name="Trazado 131371" d="M136.267,322.409c-10.178-10.362-17.749,2.8-16.692,16.016,1,12.528,11.8,55.513,9.8,73.6h4.134C143.624,388.834,149.3,335.676,136.267,322.409Z" transform="translate(-119.476 -318.681)" fill="#63a9ba" fill-rule="evenodd"/>
          <path id="Trazado_131372" data-name="Trazado 131372" d="M130.135,410.821c9.845-36.551-2.619-87.076-2.661-87.247a.584.584,0,0,0-1.136.276c.042.172,12.521,50.753,2.6,86.972Z" transform="translate(-117.623 -317.478)" fill="#80b9c9" fill-rule="evenodd"/>
        </g>
        <g id="Grupo_61553" data-name="Grupo 61553" transform="translate(0 25.136)">
          <path id="Trazado_131373" data-name="Trazado 131373" d="M115.3,339.894c-10.725-5.682-13.43,6.716-9.248,16.974,3.465,8.5,18.774,33.646,24.562,49.8h5.451C136.527,384.342,127.959,346.6,115.3,339.894Z" transform="translate(-104.176 -338.463)" fill="#fff" fill-rule="evenodd"/>
          <path id="Trazado_131374" data-name="Trazado 131374" d="M132.946,405.64c-3.548-30.2-23.63-63.018-23.7-63.138a.488.488,0,1,0-.835.507c.071.118,20.025,32.728,23.567,62.63Z" transform="translate(-103.05 -337.434)" fill="#b8b8c1" fill-rule="evenodd"/>
        </g>
        <g id="Grupo_61554" data-name="Grupo 61554" transform="translate(33.255 39.89)">
          <path id="Trazado_131375" data-name="Trazado 131375" d="M153.546,351.082c10.4-4.54,12.042,7.2,7.425,16.469-3.125,6.27-14.385,22.321-21.969,35.975h-8.655C133.306,382.869,142.8,355.776,153.546,351.082Z" transform="translate(-130.347 -350.074)" fill="#3a7f80" fill-rule="evenodd"/>
          <path id="Trazado_131376" data-name="Trazado 131376" d="M132.779,402.556c7.38-25.027,24.377-48.611,24.445-48.706a.457.457,0,0,1,.743.531c-.069.094-16.886,23.433-24.248,48.175Z" transform="translate(-129.689 -349.104)" fill="#51a5a5" fill-rule="evenodd"/>
        </g>
      </g>
      <g id="Grupo_61556" data-name="Grupo 61556" transform="translate(13.186 83.592)">
        <path id="Rectángulo_18640" data-name="Rectángulo 18640" d="M1.538,0H38.31a1.538,1.538,0,0,1,1.538,1.538v9.705a1.539,1.539,0,0,1-1.539,1.539H1.538A1.538,1.538,0,0,1,0,11.244V1.538A1.538,1.538,0,0,1,1.538,0Z" fill="#2f365c"/>
        <path id="Trazado_131377" data-name="Trazado 131377" d="M122.255,390.146h23.61l6.165,5.564-5.036,19.4H121.127l-5.036-19.4Z" transform="translate(-114.137 -382.929)" fill="#2f365c" fill-rule="evenodd"/>
        <path id="Trazado_131378" data-name="Trazado 131378" d="M152.031,394.525,151,398.512H117.127l-1.036-3.987Z" transform="translate(-114.137 -381.744)" fill="#121c39" fill-rule="evenodd"/>
      </g>
    </g>
    <circle id="Elipse_1780" data-name="Elipse 1780" cx="3.34" cy="3.34" r="3.34" transform="translate(340.94 109.059)" fill="#a6cae4"/>
    <circle id="Elipse_1781" data-name="Elipse 1781" cx="3.34" cy="3.34" r="3.34" transform="translate(395.342 300.421)" fill="#a6cae4"/>
    <circle id="Elipse_1782" data-name="Elipse 1782" cx="3.34" cy="3.34" r="3.34" transform="translate(463.106 439.767)" fill="#a6cae4"/>
    <circle id="Elipse_1783" data-name="Elipse 1783" cx="3.34" cy="3.34" r="3.34" transform="translate(73.702 413.043)" fill="#a6cae4"/>
    <path id="Trazado_131379" data-name="Trazado 131379" d="M384.787,185.9a3.341,3.341,0,1,0-3.341-3.341A3.347,3.347,0,0,0,384.787,185.9Z" transform="translate(93.112 31.49)" fill="#a6cae4" fill-rule="evenodd"/>
    <circle id="Elipse_1784" data-name="Elipse 1784" cx="3.34" cy="3.34" r="3.34" transform="translate(173.916 188.754)" fill="#a6cae4"/>
    <circle id="Elipse_1785" data-name="Elipse 1785" cx="3.34" cy="3.34" r="3.34" transform="translate(165.803 380.593)" fill="#fff"/>
    <circle id="Elipse_1786" data-name="Elipse 1786" cx="3.34" cy="3.34" r="3.34" transform="translate(485.058 363.89)" fill="#fff"/>
    <path id="Trazado_131380" data-name="Trazado 131380" d="M340.473,195.284a3.34,3.34,0,1,0-3.342-3.341A3.347,3.347,0,0,0,340.473,195.284Z" transform="translate(81.117 34.032)" fill="#fff" fill-rule="evenodd"/>
    <circle id="Elipse_1787" data-name="Elipse 1787" cx="3.34" cy="3.34" r="3.34" transform="translate(391.047 99.038)" fill="#fff"/>
    <circle id="Elipse_1788" data-name="Elipse 1788" cx="3.34" cy="3.34" r="3.34" transform="translate(525.621 183.027)" fill="#fff"/>
    <g id="Grupo_61558" data-name="Grupo 61558" transform="translate(434.422 433.232)">
      <path id="Trazado_131381" data-name="Trazado 131381" d="M384.632,384.49a10.92,10.92,0,1,1-7.723,3.2,10.891,10.891,0,0,1,7.723-3.2Zm4.709,6.214a6.66,6.66,0,1,0,1.949,4.708A6.643,6.643,0,0,0,389.341,390.7Z" transform="translate(-343.404 -346.178)" fill="#a62a34" fill-rule="evenodd"/>
      <path id="Trazado_131382" data-name="Trazado 131382" d="M372.269,417.69h0a17.177,17.177,0,0,0,17.13-17.13V382.709a1.519,1.519,0,0,0-1.517-1.515H356.658a1.519,1.519,0,0,0-1.516,1.515V400.56A17.177,17.177,0,0,0,372.269,417.69Z" transform="translate(-348.43 -347.07)" fill="#d84f50" fill-rule="evenodd"/>
      <path id="Trazado_131383" data-name="Trazado 131383" d="M381.733,398.421a16.99,16.99,0,0,1-.827,5.25,16.806,16.806,0,0,1-1.14,2.7,17.291,17.291,0,0,1-8.614,7.876,17.08,17.08,0,0,1-9.355,1.076,17.04,17.04,0,0,0,18.951-1.076,17.334,17.334,0,0,0,4.606-5.23,16.986,16.986,0,0,0,2.244-8.451V382.709a1.519,1.519,0,0,0-1.517-1.515h-4.348v17.227Z" transform="translate(-346.629 -347.07)" fill="#a62a34" fill-rule="evenodd"/>
      <path id="Trazado_131384" data-name="Trazado 131384" d="M357.424,410.889h29.692a2.29,2.29,0,0,0,2.283-2.283h0a2.29,2.29,0,0,0-2.283-2.285H357.424a2.29,2.29,0,0,0-2.282,2.285h0A2.29,2.29,0,0,0,357.424,410.889Z" transform="translate(-348.43 -340.269)" fill="#d84f50" fill-rule="evenodd"/>
      <path id="Rectángulo_18641" data-name="Rectángulo 18641" d="M2.271,0H3.5a2.27,2.27,0,0,1,2.27,2.27V13.834A2.27,2.27,0,0,1,3.5,16.1H2.271A2.271,2.271,0,0,1,0,13.834V2.271A2.271,2.271,0,0,1,2.271,0Z" transform="translate(9.312 37.379)" fill="#de7272"/>
      <path id="Trazado_131385" data-name="Trazado 131385" d="M359.07,367.343h13.059a1.806,1.806,0,0,0,1.8-1.8h0a1.805,1.805,0,0,0-1.8-1.8H354.563a4.718,4.718,0,0,1-4.7-4.7h0a4.716,4.716,0,0,1,4.7-4.7h45.678a4.715,4.715,0,0,1,4.7,4.7h0a4.716,4.716,0,0,1-4.7,4.7H384.309a1.8,1.8,0,0,0-1.8,1.8h0a1.806,1.806,0,0,0,1.8,1.8h6.13a3.639,3.639,0,0,1,3.629,3.629h0a3.639,3.639,0,0,1-3.629,3.628H380.3a7.237,7.237,0,0,0-7.214,7.215v3.308a1.708,1.708,0,0,1-1.7,1.7h0a1.707,1.707,0,0,1-1.7-1.7V378.83a4.242,4.242,0,0,0-4.229-4.23h-6.38a3.639,3.639,0,0,1-3.628-3.628h0A3.639,3.639,0,0,1,359.07,367.343Z" transform="translate(-349.86 -354.339)" fill="#fff" fill-rule="evenodd"/>
    </g>
  </g>
</svg>
