<svg xmlns="http://www.w3.org/2000/svg" width="818.367" height="333.366" viewBox="0 0 818.367 333.366">
  <g id="Grupo_62098" data-name="Grupo 62098" transform="translate(-551 -2738.157)">
    <g id="Grupo_61933" data-name="Grupo 61933" transform="translate(69.267 -25)">
      <path id="Trazado_138158" data-name="Trazado 138158" d="M75.232,12.506a4.834,4.834,0,0,0,1.459-.185A3.209,3.209,0,0,0,78.361,11a5.4,5.4,0,0,0,.747-2,7.644,7.644,0,0,0,.132-1.354,6.3,6.3,0,0,0-.954-3.727,3.523,3.523,0,0,0-3.072-1.327h-3.1v9.914ZM70.354,1.089h5.229a4.929,4.929,0,0,1,4.131,1.89,6.967,6.967,0,0,1,1.31,4.368,8.7,8.7,0,0,1-.773,3.718A4.772,4.772,0,0,1,75.566,14H70.354ZM86.983,4.376a4.294,4.294,0,0,1,1.942.47,3.582,3.582,0,0,1,1.433,1.217,4.2,4.2,0,0,1,.633,1.661A10.868,10.868,0,0,1,91.132,9.8h-6.9a4.026,4.026,0,0,0,.677,2.3,2.266,2.266,0,0,0,1.96.866,2.534,2.534,0,0,0,1.978-.817,2.755,2.755,0,0,0,.6-1.1H91a3.276,3.276,0,0,1-.409,1.156,4.111,4.111,0,0,1-.778,1.042,3.687,3.687,0,0,1-1.784.949,5.42,5.42,0,0,1-1.292.141,3.964,3.964,0,0,1-2.979-1.279,4.976,4.976,0,0,1-1.222-3.582,5.41,5.41,0,0,1,1.23-3.683A4.059,4.059,0,0,1,86.983,4.376Zm2.522,4.166A4.1,4.1,0,0,0,89.058,6.9a2.3,2.3,0,0,0-2.171-1.143,2.406,2.406,0,0,0-1.828.787,2.972,2.972,0,0,0-.782,2Zm4.57.861a4.666,4.666,0,0,0,.642,2.531,2.248,2.248,0,0,0,2.057,1.02,2.166,2.166,0,0,0,1.806-.945A4.462,4.462,0,0,0,99.288,9.3a4.009,4.009,0,0,0-.729-2.641,2.276,2.276,0,0,0-1.8-.857,2.378,2.378,0,0,0-1.938.914A4.186,4.186,0,0,0,94.076,9.4ZM96.458,4.42a3.349,3.349,0,0,1,1.811.457,4.253,4.253,0,0,1,.958.923V1.045h1.521V14H99.323V12.69a3.423,3.423,0,0,1-1.31,1.257,3.748,3.748,0,0,1-1.731.387,3.506,3.506,0,0,1-2.725-1.323,5.172,5.172,0,0,1-1.151-3.52,6.076,6.076,0,0,1,1.05-3.564A3.439,3.439,0,0,1,96.458,4.42Zm8.209.167v6.249a2.635,2.635,0,0,0,.229,1.178,1.6,1.6,0,0,0,1.573.844,2.224,2.224,0,0,0,2.25-1.477,5.858,5.858,0,0,0,.325-2.171V4.587h1.582V14h-1.494l.018-1.389a3.191,3.191,0,0,1-.765.905,3.365,3.365,0,0,1-2.2.738,2.834,2.834,0,0,1-2.742-1.345,4,4,0,0,1-.4-1.925v-6.4Zm12.059-.272a4.1,4.1,0,0,1,2.588.773,3.705,3.705,0,0,1,1.2,2.663h-1.538a2.839,2.839,0,0,0-.642-1.446,2.027,2.027,0,0,0-1.608-.576,2.222,2.222,0,0,0-2.162,1.477,5.865,5.865,0,0,0-.422,2.364,4.449,4.449,0,0,0,.6,2.382,2.317,2.317,0,0,0,3.441.365,3.311,3.311,0,0,0,.8-1.648h1.538a4.129,4.129,0,0,1-1.318,2.738,4.113,4.113,0,0,1-2.7.866,3.6,3.6,0,0,1-2.944-1.349,5.164,5.164,0,0,1-1.1-3.371,5.678,5.678,0,0,1,1.2-3.858A3.891,3.891,0,0,1,116.726,4.314Zm9,0a4.1,4.1,0,0,1,2.588.773,3.705,3.705,0,0,1,1.2,2.663h-1.538a2.839,2.839,0,0,0-.642-1.446,2.027,2.027,0,0,0-1.608-.576,2.222,2.222,0,0,0-2.162,1.477,5.865,5.865,0,0,0-.422,2.364,4.449,4.449,0,0,0,.6,2.382,2.317,2.317,0,0,0,3.441.365,3.311,3.311,0,0,0,.8-1.648h1.538a4.129,4.129,0,0,1-1.318,2.738,4.113,4.113,0,0,1-2.7.866,3.6,3.6,0,0,1-2.944-1.349,5.164,5.164,0,0,1-1.1-3.371,5.678,5.678,0,0,1,1.2-3.858A3.891,3.891,0,0,1,125.726,4.314Zm5.37.316H132.7V14H131.1Zm0-3.542H132.7V2.882H131.1ZM138.83,12.98a2.182,2.182,0,0,0,2.158-1.191,5.933,5.933,0,0,0,.584-2.65A4.718,4.718,0,0,0,141.15,7a2.373,2.373,0,0,0-2.3-1.3A2.271,2.271,0,0,0,136.738,6.8a5.133,5.133,0,0,0-.659,2.672,4.465,4.465,0,0,0,.659,2.5A2.322,2.322,0,0,0,138.83,12.98Zm.062-8.666a4.262,4.262,0,0,1,3.076,1.213A4.736,4.736,0,0,1,143.225,9.1a6.122,6.122,0,0,1-1.107,3.762,4.006,4.006,0,0,1-3.437,1.485,3.88,3.88,0,0,1-3.085-1.314A5.19,5.19,0,0,1,134.453,9.5a5.615,5.615,0,0,1,1.2-3.779A4.041,4.041,0,0,1,138.892,4.314Zm6.214.272h1.5V5.923a4.215,4.215,0,0,1,1.415-1.187,3.773,3.773,0,0,1,1.661-.36,2.739,2.739,0,0,1,2.707,1.4,4.962,4.962,0,0,1,.387,2.188V14H151.17V8.067a3.212,3.212,0,0,0-.255-1.389,1.545,1.545,0,0,0-1.529-.879,3.114,3.114,0,0,0-.923.114,2.377,2.377,0,0,0-1.143.773,2.329,2.329,0,0,0-.514.962,6.478,6.478,0,0,0-.119,1.419V14h-1.582Zm13.931-.211a4.294,4.294,0,0,1,1.942.47,3.582,3.582,0,0,1,1.433,1.217,4.2,4.2,0,0,1,.633,1.661,10.868,10.868,0,0,1,.141,2.074h-6.9a4.026,4.026,0,0,0,.677,2.3,2.266,2.266,0,0,0,1.96.866,2.534,2.534,0,0,0,1.978-.817,2.755,2.755,0,0,0,.6-1.1h1.556a3.276,3.276,0,0,1-.409,1.156,4.111,4.111,0,0,1-.778,1.042,3.687,3.687,0,0,1-1.784.949,5.42,5.42,0,0,1-1.292.141,3.964,3.964,0,0,1-2.979-1.279,4.976,4.976,0,0,1-1.222-3.582,5.41,5.41,0,0,1,1.23-3.683A4.059,4.059,0,0,1,159.036,4.376Zm2.522,4.166A4.1,4.1,0,0,0,161.11,6.9a2.3,2.3,0,0,0-2.171-1.143,2.406,2.406,0,0,0-1.828.787,2.972,2.972,0,0,0-.782,2Zm4.509,2.5a2.3,2.3,0,0,0,.4,1.213,2.485,2.485,0,0,0,2.074.765,3.059,3.059,0,0,0,1.547-.382,1.27,1.27,0,0,0,.668-1.182,1.011,1.011,0,0,0-.536-.923,6.374,6.374,0,0,0-1.354-.448l-1.257-.316A6.131,6.131,0,0,1,165.83,9.1a2,2,0,0,1-1.02-1.775,2.713,2.713,0,0,1,.962-2.162,3.839,3.839,0,0,1,2.588-.826,3.593,3.593,0,0,1,3.067,1.248A2.708,2.708,0,0,1,172,7.294h-1.494a1.83,1.83,0,0,0-.378-.976,2.41,2.41,0,0,0-1.89-.624,2.259,2.259,0,0,0-1.358.343,1.074,1.074,0,0,0-.461.905,1.114,1.114,0,0,0,.606.984,3.644,3.644,0,0,0,1.037.387l1.046.255a8.087,8.087,0,0,1,2.285.8,2.118,2.118,0,0,1,.923,1.907,2.906,2.906,0,0,1-.954,2.171,4.059,4.059,0,0,1-2.9.914,3.9,3.9,0,0,1-2.975-.954,3.606,3.606,0,0,1-.936-2.36Zm16.98-6.671a4.294,4.294,0,0,1,1.942.47,3.582,3.582,0,0,1,1.433,1.217,4.2,4.2,0,0,1,.633,1.661A10.868,10.868,0,0,1,187.2,9.8h-6.9a4.026,4.026,0,0,0,.677,2.3,2.266,2.266,0,0,0,1.96.866,2.534,2.534,0,0,0,1.978-.817,2.755,2.755,0,0,0,.6-1.1h1.556a3.276,3.276,0,0,1-.409,1.156,4.111,4.111,0,0,1-.778,1.042,3.687,3.687,0,0,1-1.784.949,5.42,5.42,0,0,1-1.292.141,3.964,3.964,0,0,1-2.979-1.279A4.976,4.976,0,0,1,178.6,9.474a5.41,5.41,0,0,1,1.23-3.683A4.059,4.059,0,0,1,183.048,4.376Zm2.522,4.166a4.1,4.1,0,0,0-.448-1.644,2.3,2.3,0,0,0-2.171-1.143,2.406,2.406,0,0,0-1.828.787,2.972,2.972,0,0,0-.782,2Zm3.568-3.955h1.5V5.923a4.215,4.215,0,0,1,1.415-1.187,3.773,3.773,0,0,1,1.661-.36,2.739,2.739,0,0,1,2.707,1.4,4.962,4.962,0,0,1,.387,2.188V14H195.2V8.067a3.212,3.212,0,0,0-.255-1.389,1.545,1.545,0,0,0-1.529-.879,3.114,3.114,0,0,0-.923.114,2.377,2.377,0,0,0-1.143.773,2.329,2.329,0,0,0-.514.962,6.478,6.478,0,0,0-.119,1.419V14h-1.582Zm18.932-.211a4.294,4.294,0,0,1,1.942.47,3.582,3.582,0,0,1,1.433,1.217,4.2,4.2,0,0,1,.633,1.661,10.868,10.868,0,0,1,.141,2.074h-6.9A4.026,4.026,0,0,0,206,12.1a2.266,2.266,0,0,0,1.96.866,2.534,2.534,0,0,0,1.978-.817,2.755,2.755,0,0,0,.6-1.1h1.556a3.276,3.276,0,0,1-.409,1.156,4.111,4.111,0,0,1-.778,1.042,3.687,3.687,0,0,1-1.784.949,5.42,5.42,0,0,1-1.292.141,3.964,3.964,0,0,1-2.979-1.279,4.976,4.976,0,0,1-1.222-3.582,5.41,5.41,0,0,1,1.23-3.683A4.059,4.059,0,0,1,208.07,4.376Zm2.522,4.166a4.1,4.1,0,0,0-.448-1.644,2.3,2.3,0,0,0-2.171-1.143,2.406,2.406,0,0,0-1.828.787,2.972,2.972,0,0,0-.782,2Zm3.612-7.453h1.582V14h-1.582ZM82.413,26.231h1.608V35.6H82.413Zm0-3.542h1.608v1.793H82.413Zm4,3.5h1.564v1.336A5.258,5.258,0,0,1,89,26.512a3.066,3.066,0,0,1,1.775-.536,2.794,2.794,0,0,1,1.811.554,2.894,2.894,0,0,1,.7.932,3.419,3.419,0,0,1,1.239-1.121,3.457,3.457,0,0,1,1.6-.365,2.616,2.616,0,0,1,2.584,1.371,4.482,4.482,0,0,1,.369,1.986V35.6H97.434V29.061a1.523,1.523,0,0,0-.47-1.292,1.861,1.861,0,0,0-1.147-.352,2.277,2.277,0,0,0-1.6.624,2.74,2.74,0,0,0-.672,2.083V35.6H91.932V29.456a3.192,3.192,0,0,0-.229-1.4,1.394,1.394,0,0,0-1.345-.659,2.32,2.32,0,0,0-1.63.694,3.4,3.4,0,0,0-.734,2.514V35.6H86.412Zm18.967,8.35a2.257,2.257,0,0,0,1.841-.927,4.413,4.413,0,0,0,.734-2.773,5.176,5.176,0,0,0-.325-1.934,2.383,2.383,0,0,0-4.5.088,6.514,6.514,0,0,0-.325,2.232,4.732,4.732,0,0,0,.325,1.854A2.243,2.243,0,0,0,105.379,34.537Zm-4.1-8.306h1.538v1.248a3.84,3.84,0,0,1,1.037-.993,3.338,3.338,0,0,1,1.881-.527,3.537,3.537,0,0,1,2.716,1.226,5.023,5.023,0,0,1,1.116,3.5q0,3.076-1.608,4.395a3.634,3.634,0,0,1-2.373.835,3.221,3.221,0,0,1-1.784-.466,4.111,4.111,0,0,1-.94-.905v4.808h-1.582ZM113,26.187v6.249a2.635,2.635,0,0,0,.229,1.178,1.6,1.6,0,0,0,1.573.844,2.224,2.224,0,0,0,2.25-1.477,5.858,5.858,0,0,0,.325-2.171V26.187h1.582V35.6h-1.494l.018-1.389a3.191,3.191,0,0,1-.765.905,3.365,3.365,0,0,1-2.2.738,2.834,2.834,0,0,1-2.742-1.345,4,4,0,0,1-.4-1.925v-6.4Zm12.349-.211a4.294,4.294,0,0,1,1.942.47,3.582,3.582,0,0,1,1.433,1.217,4.2,4.2,0,0,1,.633,1.661A10.868,10.868,0,0,1,129.5,31.4h-6.9a4.026,4.026,0,0,0,.677,2.3,2.266,2.266,0,0,0,1.96.866,2.534,2.534,0,0,0,1.978-.817,2.755,2.755,0,0,0,.6-1.1h1.556a3.276,3.276,0,0,1-.409,1.156,4.111,4.111,0,0,1-.778,1.042,3.687,3.687,0,0,1-1.784.949,5.42,5.42,0,0,1-1.292.141,3.964,3.964,0,0,1-2.979-1.279,4.976,4.976,0,0,1-1.222-3.582,5.41,5.41,0,0,1,1.23-3.683A4.059,4.059,0,0,1,125.348,25.976Zm2.522,4.166a4.1,4.1,0,0,0-.448-1.644,2.3,2.3,0,0,0-2.171-1.143,2.406,2.406,0,0,0-1.828.787,2.972,2.972,0,0,0-.782,2Zm4.509,2.5a2.3,2.3,0,0,0,.4,1.213,2.485,2.485,0,0,0,2.074.765,3.059,3.059,0,0,0,1.547-.382,1.27,1.27,0,0,0,.668-1.182,1.011,1.011,0,0,0-.536-.923,6.374,6.374,0,0,0-1.354-.448l-1.257-.316a6.131,6.131,0,0,1-1.775-.668,2,2,0,0,1-1.02-1.775,2.713,2.713,0,0,1,.962-2.162,3.839,3.839,0,0,1,2.588-.826,3.593,3.593,0,0,1,3.067,1.248,2.708,2.708,0,0,1,.571,1.705h-1.494a1.83,1.83,0,0,0-.378-.976,2.41,2.41,0,0,0-1.89-.624,2.259,2.259,0,0,0-1.358.343,1.074,1.074,0,0,0-.461.905,1.114,1.114,0,0,0,.606.984,3.644,3.644,0,0,0,1.037.387l1.046.255a8.087,8.087,0,0,1,2.285.8,2.118,2.118,0,0,1,.923,1.907,2.906,2.906,0,0,1-.954,2.171,4.059,4.059,0,0,1-2.9.914,3.9,3.9,0,0,1-2.975-.954,3.606,3.606,0,0,1-.936-2.36Zm8.376-9.088h1.6v2.628h1.5v1.292h-1.5v6.144a.665.665,0,0,0,.334.659,1.42,1.42,0,0,0,.615.1q.114,0,.246,0t.308-.022V35.6a3.532,3.532,0,0,1-.567.114,5.39,5.39,0,0,1-.637.035,1.717,1.717,0,0,1-1.5-.567,2.519,2.519,0,0,1-.4-1.472V27.479H139.48V26.187h1.274Zm8.42,11.021a2.182,2.182,0,0,0,2.158-1.191,5.933,5.933,0,0,0,.584-2.65A4.718,4.718,0,0,0,151.5,28.6a2.373,2.373,0,0,0-2.3-1.3,2.271,2.271,0,0,0-2.109,1.107,5.133,5.133,0,0,0-.659,2.672,4.465,4.465,0,0,0,.659,2.5A2.322,2.322,0,0,0,149.175,34.58Zm.062-8.666a4.262,4.262,0,0,1,3.076,1.213,4.736,4.736,0,0,1,1.257,3.568,6.122,6.122,0,0,1-1.107,3.762,4.006,4.006,0,0,1-3.437,1.485,3.88,3.88,0,0,1-3.085-1.314A5.19,5.19,0,0,1,144.8,31.1a5.615,5.615,0,0,1,1.2-3.779A4.041,4.041,0,0,1,149.236,25.914ZM161.453,31a4.666,4.666,0,0,0,.642,2.531,2.248,2.248,0,0,0,2.057,1.02,2.166,2.166,0,0,0,1.806-.945,4.462,4.462,0,0,0,.708-2.711,4.009,4.009,0,0,0-.729-2.641,2.276,2.276,0,0,0-1.8-.857,2.378,2.378,0,0,0-1.938.914A4.186,4.186,0,0,0,161.453,31Zm2.382-4.983a3.349,3.349,0,0,1,1.811.457,4.253,4.253,0,0,1,.958.923V22.645h1.521V35.6H166.7V34.29a3.423,3.423,0,0,1-1.31,1.257,3.748,3.748,0,0,1-1.731.387,3.506,3.506,0,0,1-2.725-1.323,5.172,5.172,0,0,1-1.151-3.52,6.076,6.076,0,0,1,1.05-3.564A3.439,3.439,0,0,1,163.835,26.02Zm10.547-.044a4.294,4.294,0,0,1,1.942.47,3.582,3.582,0,0,1,1.433,1.217,4.2,4.2,0,0,1,.633,1.661,10.868,10.868,0,0,1,.141,2.074h-6.9a4.026,4.026,0,0,0,.677,2.3,2.266,2.266,0,0,0,1.96.866,2.534,2.534,0,0,0,1.978-.817,2.755,2.755,0,0,0,.6-1.1H178.4a3.276,3.276,0,0,1-.409,1.156,4.111,4.111,0,0,1-.778,1.042,3.687,3.687,0,0,1-1.784.949,5.42,5.42,0,0,1-1.292.141,3.964,3.964,0,0,1-2.979-1.279,4.976,4.976,0,0,1-1.222-3.582,5.41,5.41,0,0,1,1.23-3.683A4.059,4.059,0,0,1,174.382,25.976Zm2.522,4.166a4.1,4.1,0,0,0-.448-1.644,2.3,2.3,0,0,0-2.171-1.143,2.406,2.406,0,0,0-1.828.787,2.972,2.972,0,0,0-.782,2Zm9.176-7.453h1.767V35.6H186.08Zm5.625,0,3.709,11,3.665-11h1.96L196.328,35.6h-1.854l-4.7-12.911Zm16.286,7.62-1.96-5.7-2.083,5.7Zm-2.874-7.62h1.978L211.779,35.6h-1.916l-1.31-3.867h-5.106l-1.4,3.867h-1.793Zm8.42,11h1.837V35.6h-1.837Z" transform="translate(1051 2785)" fill="#00223d"/>
      <path id="Trazado_138159" data-name="Trazado 138159" d="M75.232,12.506a4.834,4.834,0,0,0,1.459-.185A3.209,3.209,0,0,0,78.361,11a5.4,5.4,0,0,0,.747-2,7.644,7.644,0,0,0,.132-1.354,6.3,6.3,0,0,0-.954-3.727,3.523,3.523,0,0,0-3.072-1.327h-3.1v9.914ZM70.354,1.089h5.229a4.929,4.929,0,0,1,4.131,1.89,6.967,6.967,0,0,1,1.31,4.368,8.7,8.7,0,0,1-.773,3.718A4.772,4.772,0,0,1,75.566,14H70.354ZM86.983,4.376a4.294,4.294,0,0,1,1.942.47,3.582,3.582,0,0,1,1.433,1.217,4.2,4.2,0,0,1,.633,1.661A10.868,10.868,0,0,1,91.132,9.8h-6.9a4.026,4.026,0,0,0,.677,2.3,2.266,2.266,0,0,0,1.96.866,2.534,2.534,0,0,0,1.978-.817,2.755,2.755,0,0,0,.6-1.1H91a3.276,3.276,0,0,1-.409,1.156,4.111,4.111,0,0,1-.778,1.042,3.687,3.687,0,0,1-1.784.949,5.42,5.42,0,0,1-1.292.141,3.964,3.964,0,0,1-2.979-1.279,4.976,4.976,0,0,1-1.222-3.582,5.41,5.41,0,0,1,1.23-3.683A4.059,4.059,0,0,1,86.983,4.376Zm2.522,4.166A4.1,4.1,0,0,0,89.058,6.9a2.3,2.3,0,0,0-2.171-1.143,2.406,2.406,0,0,0-1.828.787,2.972,2.972,0,0,0-.782,2Zm4.57.861a4.666,4.666,0,0,0,.642,2.531,2.248,2.248,0,0,0,2.057,1.02,2.166,2.166,0,0,0,1.806-.945A4.462,4.462,0,0,0,99.288,9.3a4.009,4.009,0,0,0-.729-2.641,2.276,2.276,0,0,0-1.8-.857,2.378,2.378,0,0,0-1.938.914A4.186,4.186,0,0,0,94.076,9.4ZM96.458,4.42a3.349,3.349,0,0,1,1.811.457,4.253,4.253,0,0,1,.958.923V1.045h1.521V14H99.323V12.69a3.423,3.423,0,0,1-1.31,1.257,3.748,3.748,0,0,1-1.731.387,3.506,3.506,0,0,1-2.725-1.323,5.172,5.172,0,0,1-1.151-3.52,6.076,6.076,0,0,1,1.05-3.564A3.439,3.439,0,0,1,96.458,4.42Zm8.209.167v6.249a2.635,2.635,0,0,0,.229,1.178,1.6,1.6,0,0,0,1.573.844,2.224,2.224,0,0,0,2.25-1.477,5.858,5.858,0,0,0,.325-2.171V4.587h1.582V14h-1.494l.018-1.389a3.191,3.191,0,0,1-.765.905,3.365,3.365,0,0,1-2.2.738,2.834,2.834,0,0,1-2.742-1.345,4,4,0,0,1-.4-1.925v-6.4Zm12.059-.272a4.1,4.1,0,0,1,2.588.773,3.705,3.705,0,0,1,1.2,2.663h-1.538a2.839,2.839,0,0,0-.642-1.446,2.027,2.027,0,0,0-1.608-.576,2.222,2.222,0,0,0-2.162,1.477,5.865,5.865,0,0,0-.422,2.364,4.449,4.449,0,0,0,.6,2.382,2.317,2.317,0,0,0,3.441.365,3.311,3.311,0,0,0,.8-1.648h1.538a4.129,4.129,0,0,1-1.318,2.738,4.113,4.113,0,0,1-2.7.866,3.6,3.6,0,0,1-2.944-1.349,5.164,5.164,0,0,1-1.1-3.371,5.678,5.678,0,0,1,1.2-3.858A3.891,3.891,0,0,1,116.726,4.314Zm9,0a4.1,4.1,0,0,1,2.588.773,3.705,3.705,0,0,1,1.2,2.663h-1.538a2.839,2.839,0,0,0-.642-1.446,2.027,2.027,0,0,0-1.608-.576,2.222,2.222,0,0,0-2.162,1.477,5.865,5.865,0,0,0-.422,2.364,4.449,4.449,0,0,0,.6,2.382,2.317,2.317,0,0,0,3.441.365,3.311,3.311,0,0,0,.8-1.648h1.538a4.129,4.129,0,0,1-1.318,2.738,4.113,4.113,0,0,1-2.7.866,3.6,3.6,0,0,1-2.944-1.349,5.164,5.164,0,0,1-1.1-3.371,5.678,5.678,0,0,1,1.2-3.858A3.891,3.891,0,0,1,125.726,4.314Zm5.37.316H132.7V14H131.1Zm0-3.542H132.7V2.882H131.1ZM138.83,12.98a2.182,2.182,0,0,0,2.158-1.191,5.933,5.933,0,0,0,.584-2.65A4.718,4.718,0,0,0,141.15,7a2.373,2.373,0,0,0-2.3-1.3A2.271,2.271,0,0,0,136.738,6.8a5.133,5.133,0,0,0-.659,2.672,4.465,4.465,0,0,0,.659,2.5A2.322,2.322,0,0,0,138.83,12.98Zm.062-8.666a4.262,4.262,0,0,1,3.076,1.213A4.736,4.736,0,0,1,143.225,9.1a6.122,6.122,0,0,1-1.107,3.762,4.006,4.006,0,0,1-3.437,1.485,3.88,3.88,0,0,1-3.085-1.314A5.19,5.19,0,0,1,134.453,9.5a5.615,5.615,0,0,1,1.2-3.779A4.041,4.041,0,0,1,138.892,4.314Zm6.214.272h1.5V5.923a4.215,4.215,0,0,1,1.415-1.187,3.773,3.773,0,0,1,1.661-.36,2.739,2.739,0,0,1,2.707,1.4,4.962,4.962,0,0,1,.387,2.188V14H151.17V8.067a3.212,3.212,0,0,0-.255-1.389,1.545,1.545,0,0,0-1.529-.879,3.114,3.114,0,0,0-.923.114,2.377,2.377,0,0,0-1.143.773,2.329,2.329,0,0,0-.514.962,6.478,6.478,0,0,0-.119,1.419V14h-1.582Zm13.931-.211a4.294,4.294,0,0,1,1.942.47,3.582,3.582,0,0,1,1.433,1.217,4.2,4.2,0,0,1,.633,1.661,10.868,10.868,0,0,1,.141,2.074h-6.9a4.026,4.026,0,0,0,.677,2.3,2.266,2.266,0,0,0,1.96.866,2.534,2.534,0,0,0,1.978-.817,2.755,2.755,0,0,0,.6-1.1h1.556a3.276,3.276,0,0,1-.409,1.156,4.111,4.111,0,0,1-.778,1.042,3.687,3.687,0,0,1-1.784.949,5.42,5.42,0,0,1-1.292.141,3.964,3.964,0,0,1-2.979-1.279,4.976,4.976,0,0,1-1.222-3.582,5.41,5.41,0,0,1,1.23-3.683A4.059,4.059,0,0,1,159.036,4.376Zm2.522,4.166A4.1,4.1,0,0,0,161.11,6.9a2.3,2.3,0,0,0-2.171-1.143,2.406,2.406,0,0,0-1.828.787,2.972,2.972,0,0,0-.782,2Zm4.509,2.5a2.3,2.3,0,0,0,.4,1.213,2.485,2.485,0,0,0,2.074.765,3.059,3.059,0,0,0,1.547-.382,1.27,1.27,0,0,0,.668-1.182,1.011,1.011,0,0,0-.536-.923,6.374,6.374,0,0,0-1.354-.448l-1.257-.316A6.131,6.131,0,0,1,165.83,9.1a2,2,0,0,1-1.02-1.775,2.713,2.713,0,0,1,.962-2.162,3.839,3.839,0,0,1,2.588-.826,3.593,3.593,0,0,1,3.067,1.248A2.708,2.708,0,0,1,172,7.294h-1.494a1.83,1.83,0,0,0-.378-.976,2.41,2.41,0,0,0-1.89-.624,2.259,2.259,0,0,0-1.358.343,1.074,1.074,0,0,0-.461.905,1.114,1.114,0,0,0,.606.984,3.644,3.644,0,0,0,1.037.387l1.046.255a8.087,8.087,0,0,1,2.285.8,2.118,2.118,0,0,1,.923,1.907,2.906,2.906,0,0,1-.954,2.171,4.059,4.059,0,0,1-2.9.914,3.9,3.9,0,0,1-2.975-.954,3.606,3.606,0,0,1-.936-2.36Zm16.98-6.671a4.294,4.294,0,0,1,1.942.47,3.582,3.582,0,0,1,1.433,1.217,4.2,4.2,0,0,1,.633,1.661A10.868,10.868,0,0,1,187.2,9.8h-6.9a4.026,4.026,0,0,0,.677,2.3,2.266,2.266,0,0,0,1.96.866,2.534,2.534,0,0,0,1.978-.817,2.755,2.755,0,0,0,.6-1.1h1.556a3.276,3.276,0,0,1-.409,1.156,4.111,4.111,0,0,1-.778,1.042,3.687,3.687,0,0,1-1.784.949,5.42,5.42,0,0,1-1.292.141,3.964,3.964,0,0,1-2.979-1.279A4.976,4.976,0,0,1,178.6,9.474a5.41,5.41,0,0,1,1.23-3.683A4.059,4.059,0,0,1,183.048,4.376Zm2.522,4.166a4.1,4.1,0,0,0-.448-1.644,2.3,2.3,0,0,0-2.171-1.143,2.406,2.406,0,0,0-1.828.787,2.972,2.972,0,0,0-.782,2Zm3.568-3.955h1.5V5.923a4.215,4.215,0,0,1,1.415-1.187,3.773,3.773,0,0,1,1.661-.36,2.739,2.739,0,0,1,2.707,1.4,4.962,4.962,0,0,1,.387,2.188V14H195.2V8.067a3.212,3.212,0,0,0-.255-1.389,1.545,1.545,0,0,0-1.529-.879,3.114,3.114,0,0,0-.923.114,2.377,2.377,0,0,0-1.143.773,2.329,2.329,0,0,0-.514.962,6.478,6.478,0,0,0-.119,1.419V14h-1.582Zm18.932-.211a4.294,4.294,0,0,1,1.942.47,3.582,3.582,0,0,1,1.433,1.217,4.2,4.2,0,0,1,.633,1.661,10.868,10.868,0,0,1,.141,2.074h-6.9A4.026,4.026,0,0,0,206,12.1a2.266,2.266,0,0,0,1.96.866,2.534,2.534,0,0,0,1.978-.817,2.755,2.755,0,0,0,.6-1.1h1.556a3.276,3.276,0,0,1-.409,1.156,4.111,4.111,0,0,1-.778,1.042,3.687,3.687,0,0,1-1.784.949,5.42,5.42,0,0,1-1.292.141,3.964,3.964,0,0,1-2.979-1.279,4.976,4.976,0,0,1-1.222-3.582,5.41,5.41,0,0,1,1.23-3.683A4.059,4.059,0,0,1,208.07,4.376Zm2.522,4.166a4.1,4.1,0,0,0-.448-1.644,2.3,2.3,0,0,0-2.171-1.143,2.406,2.406,0,0,0-1.828.787,2.972,2.972,0,0,0-.782,2Zm3.612-7.453h1.582V14h-1.582ZM82.413,26.231h1.608V35.6H82.413Zm0-3.542h1.608v1.793H82.413Zm4,3.5h1.564v1.336A5.258,5.258,0,0,1,89,26.512a3.066,3.066,0,0,1,1.775-.536,2.794,2.794,0,0,1,1.811.554,2.894,2.894,0,0,1,.7.932,3.419,3.419,0,0,1,1.239-1.121,3.457,3.457,0,0,1,1.6-.365,2.616,2.616,0,0,1,2.584,1.371,4.482,4.482,0,0,1,.369,1.986V35.6H97.434V29.061a1.523,1.523,0,0,0-.47-1.292,1.861,1.861,0,0,0-1.147-.352,2.277,2.277,0,0,0-1.6.624,2.74,2.74,0,0,0-.672,2.083V35.6H91.932V29.456a3.192,3.192,0,0,0-.229-1.4,1.394,1.394,0,0,0-1.345-.659,2.32,2.32,0,0,0-1.63.694,3.4,3.4,0,0,0-.734,2.514V35.6H86.412Zm18.967,8.35a2.257,2.257,0,0,0,1.841-.927,4.413,4.413,0,0,0,.734-2.773,5.176,5.176,0,0,0-.325-1.934,2.383,2.383,0,0,0-4.5.088,6.514,6.514,0,0,0-.325,2.232,4.732,4.732,0,0,0,.325,1.854A2.243,2.243,0,0,0,105.379,34.537Zm-4.1-8.306h1.538v1.248a3.84,3.84,0,0,1,1.037-.993,3.338,3.338,0,0,1,1.881-.527,3.537,3.537,0,0,1,2.716,1.226,5.023,5.023,0,0,1,1.116,3.5q0,3.076-1.608,4.395a3.634,3.634,0,0,1-2.373.835,3.221,3.221,0,0,1-1.784-.466,4.111,4.111,0,0,1-.94-.905v4.808h-1.582ZM113,26.187v6.249a2.635,2.635,0,0,0,.229,1.178,1.6,1.6,0,0,0,1.573.844,2.224,2.224,0,0,0,2.25-1.477,5.858,5.858,0,0,0,.325-2.171V26.187h1.582V35.6h-1.494l.018-1.389a3.191,3.191,0,0,1-.765.905,3.365,3.365,0,0,1-2.2.738,2.834,2.834,0,0,1-2.742-1.345,4,4,0,0,1-.4-1.925v-6.4Zm12.349-.211a4.294,4.294,0,0,1,1.942.47,3.582,3.582,0,0,1,1.433,1.217,4.2,4.2,0,0,1,.633,1.661A10.868,10.868,0,0,1,129.5,31.4h-6.9a4.026,4.026,0,0,0,.677,2.3,2.266,2.266,0,0,0,1.96.866,2.534,2.534,0,0,0,1.978-.817,2.755,2.755,0,0,0,.6-1.1h1.556a3.276,3.276,0,0,1-.409,1.156,4.111,4.111,0,0,1-.778,1.042,3.687,3.687,0,0,1-1.784.949,5.42,5.42,0,0,1-1.292.141,3.964,3.964,0,0,1-2.979-1.279,4.976,4.976,0,0,1-1.222-3.582,5.41,5.41,0,0,1,1.23-3.683A4.059,4.059,0,0,1,125.348,25.976Zm2.522,4.166a4.1,4.1,0,0,0-.448-1.644,2.3,2.3,0,0,0-2.171-1.143,2.406,2.406,0,0,0-1.828.787,2.972,2.972,0,0,0-.782,2Zm4.509,2.5a2.3,2.3,0,0,0,.4,1.213,2.485,2.485,0,0,0,2.074.765,3.059,3.059,0,0,0,1.547-.382,1.27,1.27,0,0,0,.668-1.182,1.011,1.011,0,0,0-.536-.923,6.374,6.374,0,0,0-1.354-.448l-1.257-.316a6.131,6.131,0,0,1-1.775-.668,2,2,0,0,1-1.02-1.775,2.713,2.713,0,0,1,.962-2.162,3.839,3.839,0,0,1,2.588-.826,3.593,3.593,0,0,1,3.067,1.248,2.708,2.708,0,0,1,.571,1.705h-1.494a1.83,1.83,0,0,0-.378-.976,2.41,2.41,0,0,0-1.89-.624,2.259,2.259,0,0,0-1.358.343,1.074,1.074,0,0,0-.461.905,1.114,1.114,0,0,0,.606.984,3.644,3.644,0,0,0,1.037.387l1.046.255a8.087,8.087,0,0,1,2.285.8,2.118,2.118,0,0,1,.923,1.907,2.906,2.906,0,0,1-.954,2.171,4.059,4.059,0,0,1-2.9.914,3.9,3.9,0,0,1-2.975-.954,3.606,3.606,0,0,1-.936-2.36Zm8.376-9.088h1.6v2.628h1.5v1.292h-1.5v6.144a.665.665,0,0,0,.334.659,1.42,1.42,0,0,0,.615.1q.114,0,.246,0t.308-.022V35.6a3.532,3.532,0,0,1-.567.114,5.39,5.39,0,0,1-.637.035,1.717,1.717,0,0,1-1.5-.567,2.519,2.519,0,0,1-.4-1.472V27.479H139.48V26.187h1.274Zm8.42,11.021a2.182,2.182,0,0,0,2.158-1.191,5.933,5.933,0,0,0,.584-2.65A4.718,4.718,0,0,0,151.5,28.6a2.373,2.373,0,0,0-2.3-1.3,2.271,2.271,0,0,0-2.109,1.107,5.133,5.133,0,0,0-.659,2.672,4.465,4.465,0,0,0,.659,2.5A2.322,2.322,0,0,0,149.175,34.58Zm.062-8.666a4.262,4.262,0,0,1,3.076,1.213,4.736,4.736,0,0,1,1.257,3.568,6.122,6.122,0,0,1-1.107,3.762,4.006,4.006,0,0,1-3.437,1.485,3.88,3.88,0,0,1-3.085-1.314A5.19,5.19,0,0,1,144.8,31.1a5.615,5.615,0,0,1,1.2-3.779A4.041,4.041,0,0,1,149.236,25.914ZM161.453,31a4.666,4.666,0,0,0,.642,2.531,2.248,2.248,0,0,0,2.057,1.02,2.166,2.166,0,0,0,1.806-.945,4.462,4.462,0,0,0,.708-2.711,4.009,4.009,0,0,0-.729-2.641,2.276,2.276,0,0,0-1.8-.857,2.378,2.378,0,0,0-1.938.914A4.186,4.186,0,0,0,161.453,31Zm2.382-4.983a3.349,3.349,0,0,1,1.811.457,4.253,4.253,0,0,1,.958.923V22.645h1.521V35.6H166.7V34.29a3.423,3.423,0,0,1-1.31,1.257,3.748,3.748,0,0,1-1.731.387,3.506,3.506,0,0,1-2.725-1.323,5.172,5.172,0,0,1-1.151-3.52,6.076,6.076,0,0,1,1.05-3.564A3.439,3.439,0,0,1,163.835,26.02Zm10.547-.044a4.294,4.294,0,0,1,1.942.47,3.582,3.582,0,0,1,1.433,1.217,4.2,4.2,0,0,1,.633,1.661,10.868,10.868,0,0,1,.141,2.074h-6.9a4.026,4.026,0,0,0,.677,2.3,2.266,2.266,0,0,0,1.96.866,2.534,2.534,0,0,0,1.978-.817,2.755,2.755,0,0,0,.6-1.1H178.4a3.276,3.276,0,0,1-.409,1.156,4.111,4.111,0,0,1-.778,1.042,3.687,3.687,0,0,1-1.784.949,5.42,5.42,0,0,1-1.292.141,3.964,3.964,0,0,1-2.979-1.279,4.976,4.976,0,0,1-1.222-3.582,5.41,5.41,0,0,1,1.23-3.683A4.059,4.059,0,0,1,174.382,25.976Zm2.522,4.166a4.1,4.1,0,0,0-.448-1.644,2.3,2.3,0,0,0-2.171-1.143,2.406,2.406,0,0,0-1.828.787,2.972,2.972,0,0,0-.782,2Zm9.176-7.453h1.767V35.6H186.08Zm5.625,0,3.709,11,3.665-11h1.96L196.328,35.6h-1.854l-4.7-12.911Zm16.286,7.62-1.96-5.7-2.083,5.7Zm-2.874-7.62h1.978L211.779,35.6h-1.916l-1.31-3.867h-5.106l-1.4,3.867h-1.793Zm8.42,11h1.837V35.6h-1.837Z" transform="translate(1051 2910)" fill="#00223d"/>
      <path id="Trazado_138160" data-name="Trazado 138160" d="M36.429,1.089h9.413V2.671H38.134v3.92h7.128V8.085H38.134v4.377h7.84V14H36.429Zm10.731,3.5h2.048L51.37,7.9l2.188-3.313,1.925.044L52.311,9.175,55.624,14H53.6l-2.338-3.533L49,14h-2l3.313-4.825Zm13.816-.211a4.294,4.294,0,0,1,1.942.47,3.582,3.582,0,0,1,1.433,1.217,4.2,4.2,0,0,1,.633,1.661A10.868,10.868,0,0,1,65.125,9.8h-6.9a4.026,4.026,0,0,0,.677,2.3,2.266,2.266,0,0,0,1.96.866,2.534,2.534,0,0,0,1.978-.817,2.755,2.755,0,0,0,.6-1.1h1.556a3.276,3.276,0,0,1-.409,1.156,4.111,4.111,0,0,1-.778,1.042,3.687,3.687,0,0,1-1.784.949,5.42,5.42,0,0,1-1.292.141,3.964,3.964,0,0,1-2.979-1.279,4.976,4.976,0,0,1-1.222-3.582,5.41,5.41,0,0,1,1.23-3.683A4.059,4.059,0,0,1,60.977,4.376ZM63.5,8.542A4.1,4.1,0,0,0,63.051,6.9,2.3,2.3,0,0,0,60.88,5.756a2.406,2.406,0,0,0-1.828.787,2.972,2.972,0,0,0-.782,2Zm3.568-3.955h1.5V5.923a4.215,4.215,0,0,1,1.415-1.187,3.773,3.773,0,0,1,1.661-.36,2.739,2.739,0,0,1,2.707,1.4,4.962,4.962,0,0,1,.387,2.188V14H73.132V8.067a3.212,3.212,0,0,0-.255-1.389A1.545,1.545,0,0,0,71.348,5.8a3.114,3.114,0,0,0-.923.114,2.377,2.377,0,0,0-1.143.773,2.329,2.329,0,0,0-.514.962,6.478,6.478,0,0,0-.119,1.419V14H67.067Zm13.641-.272a4.1,4.1,0,0,1,2.588.773,3.705,3.705,0,0,1,1.2,2.663H82.958a2.839,2.839,0,0,0-.642-1.446,2.027,2.027,0,0,0-1.608-.576,2.222,2.222,0,0,0-2.162,1.477,5.865,5.865,0,0,0-.422,2.364,4.449,4.449,0,0,0,.6,2.382,2.317,2.317,0,0,0,3.441.365,3.311,3.311,0,0,0,.8-1.648H84.5a4.129,4.129,0,0,1-1.318,2.738,4.113,4.113,0,0,1-2.7.866,3.6,3.6,0,0,1-2.944-1.349,5.164,5.164,0,0,1-1.1-3.371,5.678,5.678,0,0,1,1.2-3.858A3.891,3.891,0,0,1,80.708,4.314Zm5.37.316h1.608V14H86.078Zm0-3.542h1.608V2.882H86.078ZM93.813,12.98A2.182,2.182,0,0,0,95.97,11.79a5.933,5.933,0,0,0,.584-2.65A4.718,4.718,0,0,0,96.133,7a2.373,2.373,0,0,0-2.3-1.3A2.271,2.271,0,0,0,91.721,6.8a5.133,5.133,0,0,0-.659,2.672,4.465,4.465,0,0,0,.659,2.5A2.322,2.322,0,0,0,93.813,12.98Zm.062-8.666A4.262,4.262,0,0,1,96.95,5.527,4.736,4.736,0,0,1,98.207,9.1,6.122,6.122,0,0,1,97.1,12.857a4.006,4.006,0,0,1-3.437,1.485,3.88,3.88,0,0,1-3.085-1.314A5.19,5.19,0,0,1,89.436,9.5a5.615,5.615,0,0,1,1.2-3.779A4.041,4.041,0,0,1,93.874,4.314ZM95.711.8l-2.347,2.54H92.151L93.76.8Zm4.377,3.788h1.5V5.923a4.215,4.215,0,0,1,1.415-1.187,3.773,3.773,0,0,1,1.661-.36,2.739,2.739,0,0,1,2.707,1.4,4.962,4.962,0,0,1,.387,2.188V14h-1.608V8.067a3.212,3.212,0,0,0-.255-1.389,1.545,1.545,0,0,0-1.529-.879,3.114,3.114,0,0,0-.923.114,2.377,2.377,0,0,0-1.143.773,2.329,2.329,0,0,0-.514.962,6.478,6.478,0,0,0-.119,1.419V14h-1.582ZM116.1,9.4a4.666,4.666,0,0,0,.642,2.531,2.248,2.248,0,0,0,2.057,1.02,2.166,2.166,0,0,0,1.806-.945,4.462,4.462,0,0,0,.708-2.711,4.009,4.009,0,0,0-.729-2.641,2.276,2.276,0,0,0-1.8-.857,2.378,2.378,0,0,0-1.938.914A4.186,4.186,0,0,0,116.1,9.4Zm2.382-4.983a3.349,3.349,0,0,1,1.811.457,4.253,4.253,0,0,1,.958.923V1.045h1.521V14h-1.424V12.69a3.423,3.423,0,0,1-1.31,1.257,3.748,3.748,0,0,1-1.731.387,3.506,3.506,0,0,1-2.725-1.323,5.172,5.172,0,0,1-1.151-3.52,6.076,6.076,0,0,1,1.05-3.564A3.439,3.439,0,0,1,118.483,4.42Zm10.547-.044a4.294,4.294,0,0,1,1.942.47,3.582,3.582,0,0,1,1.433,1.217,4.2,4.2,0,0,1,.633,1.661,10.868,10.868,0,0,1,.141,2.074h-6.9a4.026,4.026,0,0,0,.677,2.3,2.266,2.266,0,0,0,1.96.866,2.534,2.534,0,0,0,1.978-.817,2.755,2.755,0,0,0,.6-1.1h1.556a3.276,3.276,0,0,1-.409,1.156,4.111,4.111,0,0,1-.778,1.042,3.687,3.687,0,0,1-1.784.949,5.42,5.42,0,0,1-1.292.141,3.964,3.964,0,0,1-2.979-1.279,4.976,4.976,0,0,1-1.222-3.582,5.41,5.41,0,0,1,1.23-3.683A4.059,4.059,0,0,1,129.03,4.376Zm2.522,4.166A4.1,4.1,0,0,0,131.1,6.9a2.3,2.3,0,0,0-2.171-1.143,2.406,2.406,0,0,0-1.828.787,2.972,2.972,0,0,0-.782,2Zm3.612-7.453h1.582V14h-1.582Zm9.563,0h1.767V14h-1.767Zm4.395,3.5h1.564V5.923a5.258,5.258,0,0,1,1.02-1.011,3.066,3.066,0,0,1,1.775-.536,2.794,2.794,0,0,1,1.811.554,2.894,2.894,0,0,1,.7.932,3.419,3.419,0,0,1,1.239-1.121,3.457,3.457,0,0,1,1.6-.365,2.616,2.616,0,0,1,2.584,1.371,4.482,4.482,0,0,1,.369,1.986V14h-1.644V7.461a1.523,1.523,0,0,0-.47-1.292,1.861,1.861,0,0,0-1.147-.352,2.277,2.277,0,0,0-1.6.624,2.74,2.74,0,0,0-.672,2.083V14h-1.608V7.856a3.192,3.192,0,0,0-.229-1.4,1.394,1.394,0,0,0-1.345-.659,2.32,2.32,0,0,0-1.63.694,3.4,3.4,0,0,0-.734,2.514V14h-1.582Zm18.967,8.35a2.257,2.257,0,0,0,1.841-.927,4.413,4.413,0,0,0,.734-2.773,5.176,5.176,0,0,0-.325-1.934,2.383,2.383,0,0,0-4.5.088,6.514,6.514,0,0,0-.325,2.232,4.732,4.732,0,0,0,.325,1.854A2.243,2.243,0,0,0,168.089,12.937Zm-4.1-8.306h1.538V5.879a3.84,3.84,0,0,1,1.037-.993,3.338,3.338,0,0,1,1.881-.527,3.537,3.537,0,0,1,2.716,1.226,5.023,5.023,0,0,1,1.116,3.5q0,3.076-1.608,4.395a3.634,3.634,0,0,1-2.373.835,3.221,3.221,0,0,1-1.784-.466,4.111,4.111,0,0,1-.94-.905v4.808h-1.582Zm11.716-.044v6.249a2.635,2.635,0,0,0,.229,1.178,1.6,1.6,0,0,0,1.573.844,2.224,2.224,0,0,0,2.25-1.477,5.858,5.858,0,0,0,.325-2.171V4.587h1.582V14h-1.494l.018-1.389a3.191,3.191,0,0,1-.765.905,3.365,3.365,0,0,1-2.2.738,2.834,2.834,0,0,1-2.742-1.345,4,4,0,0,1-.4-1.925v-6.4Zm12.349-.211a4.294,4.294,0,0,1,1.942.47,3.582,3.582,0,0,1,1.433,1.217,4.2,4.2,0,0,1,.633,1.661,10.868,10.868,0,0,1,.141,2.074h-6.9a4.026,4.026,0,0,0,.677,2.3,2.266,2.266,0,0,0,1.96.866,2.534,2.534,0,0,0,1.978-.817,2.755,2.755,0,0,0,.6-1.1h1.556a3.276,3.276,0,0,1-.409,1.156,4.111,4.111,0,0,1-.778,1.042,3.687,3.687,0,0,1-1.784.949,5.42,5.42,0,0,1-1.292.141,3.964,3.964,0,0,1-2.979-1.279,4.976,4.976,0,0,1-1.222-3.582,5.41,5.41,0,0,1,1.23-3.683A4.059,4.059,0,0,1,188.058,4.376Zm2.522,4.166a4.1,4.1,0,0,0-.448-1.644,2.3,2.3,0,0,0-2.171-1.143,2.406,2.406,0,0,0-1.828.787,2.972,2.972,0,0,0-.782,2Zm4.509,2.5a2.3,2.3,0,0,0,.4,1.213,2.485,2.485,0,0,0,2.074.765,3.059,3.059,0,0,0,1.547-.382,1.27,1.27,0,0,0,.668-1.182,1.011,1.011,0,0,0-.536-.923,6.374,6.374,0,0,0-1.354-.448l-1.257-.316a6.131,6.131,0,0,1-1.775-.668,2,2,0,0,1-1.02-1.775,2.713,2.713,0,0,1,.962-2.162,3.839,3.839,0,0,1,2.588-.826,3.593,3.593,0,0,1,3.067,1.248,2.708,2.708,0,0,1,.571,1.705h-1.494a1.83,1.83,0,0,0-.378-.976,2.41,2.41,0,0,0-1.89-.624,2.259,2.259,0,0,0-1.358.343,1.074,1.074,0,0,0-.461.905,1.114,1.114,0,0,0,.606.984,3.644,3.644,0,0,0,1.037.387l1.046.255a8.087,8.087,0,0,1,2.285.8,2.118,2.118,0,0,1,.923,1.907,2.906,2.906,0,0,1-.954,2.171,4.059,4.059,0,0,1-2.9.914,3.9,3.9,0,0,1-2.975-.954,3.606,3.606,0,0,1-.936-2.36Zm8.376-9.088h1.6V4.587h1.5V5.879h-1.5v6.144a.665.665,0,0,0,.334.659,1.42,1.42,0,0,0,.615.1q.114,0,.246,0t.308-.022V14a3.532,3.532,0,0,1-.567.114,5.39,5.39,0,0,1-.637.035,1.717,1.717,0,0,1-1.5-.567,2.519,2.519,0,0,1-.4-1.472V5.879H202.19V4.587h1.274Zm8.42,11.021a2.182,2.182,0,0,0,2.158-1.191,5.933,5.933,0,0,0,.584-2.65A4.718,4.718,0,0,0,214.205,7a2.373,2.373,0,0,0-2.3-1.3A2.271,2.271,0,0,0,209.793,6.8a5.133,5.133,0,0,0-.659,2.672,4.465,4.465,0,0,0,.659,2.5A2.322,2.322,0,0,0,211.885,12.98Zm.062-8.666a4.262,4.262,0,0,1,3.076,1.213A4.736,4.736,0,0,1,216.279,9.1a6.122,6.122,0,0,1-1.107,3.762,4.006,4.006,0,0,1-3.437,1.485,3.88,3.88,0,0,1-3.085-1.314A5.19,5.19,0,0,1,207.508,9.5a5.615,5.615,0,0,1,1.2-3.779A4.041,4.041,0,0,1,211.946,4.314ZM11.433,22.689h5.81a3.938,3.938,0,0,1,2.777.971,3.524,3.524,0,0,1,1.055,2.729,3.968,3.968,0,0,1-.94,2.632,3.563,3.563,0,0,1-2.892,1.121H13.182V35.6H11.433ZM19.308,26.4a1.943,1.943,0,0,0-1.055-1.934,3.808,3.808,0,0,0-1.591-.272h-3.48v4.474h3.48a3.326,3.326,0,0,0,1.912-.5A1.985,1.985,0,0,0,19.308,26.4Zm3.8-.211h1.5v1.626a3.592,3.592,0,0,1,.905-1.156,2.347,2.347,0,0,1,1.661-.681q.044,0,.149.009t.36.035v1.67a2.363,2.363,0,0,0-.259-.035q-.119-.009-.259-.009a2.258,2.258,0,0,0-1.837.769,2.684,2.684,0,0,0-.642,1.771V35.6H23.1Zm9.87-.211a4.294,4.294,0,0,1,1.942.47,3.582,3.582,0,0,1,1.433,1.217,4.2,4.2,0,0,1,.633,1.661,10.868,10.868,0,0,1,.141,2.074h-6.9a4.026,4.026,0,0,0,.677,2.3,2.266,2.266,0,0,0,1.96.866,2.534,2.534,0,0,0,1.978-.817,2.755,2.755,0,0,0,.6-1.1h1.556a3.276,3.276,0,0,1-.409,1.156,4.111,4.111,0,0,1-.778,1.042,3.687,3.687,0,0,1-1.784.949,5.42,5.42,0,0,1-1.292.141,3.964,3.964,0,0,1-2.979-1.279,4.976,4.976,0,0,1-1.222-3.582,5.41,5.41,0,0,1,1.23-3.683A4.059,4.059,0,0,1,32.975,25.976ZM35.5,30.142a4.1,4.1,0,0,0-.448-1.644,2.3,2.3,0,0,0-2.171-1.143,2.406,2.406,0,0,0-1.828.787,2.972,2.972,0,0,0-.782,2Zm4.57.861a4.666,4.666,0,0,0,.642,2.531,2.248,2.248,0,0,0,2.057,1.02,2.166,2.166,0,0,0,1.806-.945,4.462,4.462,0,0,0,.708-2.711,4.009,4.009,0,0,0-.729-2.641,2.276,2.276,0,0,0-1.8-.857,2.378,2.378,0,0,0-1.938.914A4.186,4.186,0,0,0,40.067,31Zm2.382-4.983a3.349,3.349,0,0,1,1.811.457,4.253,4.253,0,0,1,.958.923V22.645h1.521V35.6H45.314V34.29A3.423,3.423,0,0,1,44,35.547a3.748,3.748,0,0,1-1.731.387,3.506,3.506,0,0,1-2.725-1.323,5.172,5.172,0,0,1-1.151-3.52,6.076,6.076,0,0,1,1.05-3.564A3.439,3.439,0,0,1,42.449,26.02Zm6.627.211h1.608V35.6H49.076Zm0-3.542h1.608v1.793H49.076ZM54.288,33.1a1.3,1.3,0,0,0,.5,1.081,1.857,1.857,0,0,0,1.187.4,3.608,3.608,0,0,0,1.617-.387,2.176,2.176,0,0,0,1.318-2.1V30.81a2.707,2.707,0,0,1-.747.308,6.366,6.366,0,0,1-.9.176l-.958.123a3.664,3.664,0,0,0-1.292.36A1.4,1.4,0,0,0,54.288,33.1Zm3.832-3.2a.859.859,0,0,0,.729-.457,1.391,1.391,0,0,0,.105-.606,1.285,1.285,0,0,0-.576-1.173,3.089,3.089,0,0,0-1.648-.365,2.094,2.094,0,0,0-1.758.668,2.2,2.2,0,0,0-.378,1.1H53.119a2.718,2.718,0,0,1,1.129-2.421,4.637,4.637,0,0,1,2.518-.681,5.124,5.124,0,0,1,2.7.633,2.147,2.147,0,0,1,1.028,1.969v5.423a.694.694,0,0,0,.1.4.487.487,0,0,0,.426.149q.105,0,.237-.013t.281-.04v1.169a4.406,4.406,0,0,1-.562.132,4.111,4.111,0,0,1-.527.026,1.3,1.3,0,0,1-1.187-.58,2.239,2.239,0,0,1-.272-.87,4.025,4.025,0,0,1-1.389,1.1,4.3,4.3,0,0,1-2,.466,2.967,2.967,0,0,1-2.14-.8,2.642,2.642,0,0,1-.831-1.991,2.564,2.564,0,0,1,.817-2.03,3.889,3.889,0,0,1,2.145-.888Zm5.01-7.207h1.582V35.6H63.13ZM76.059,34.537a2.257,2.257,0,0,0,1.841-.927,4.413,4.413,0,0,0,.734-2.773,5.176,5.176,0,0,0-.325-1.934,2.383,2.383,0,0,0-4.5.088,6.514,6.514,0,0,0-.325,2.232,4.732,4.732,0,0,0,.325,1.854A2.243,2.243,0,0,0,76.059,34.537Zm-4.1-8.306H73.5v1.248a3.84,3.84,0,0,1,1.037-.993,3.338,3.338,0,0,1,1.881-.527,3.537,3.537,0,0,1,2.716,1.226,5.023,5.023,0,0,1,1.116,3.5q0,3.076-1.608,4.395a3.634,3.634,0,0,1-2.373.835,3.221,3.221,0,0,1-1.784-.466,4.111,4.111,0,0,1-.94-.905v4.808H71.963Zm13.869,8.35A2.182,2.182,0,0,0,87.99,33.39a5.933,5.933,0,0,0,.584-2.65,4.718,4.718,0,0,0-.422-2.145,2.373,2.373,0,0,0-2.3-1.3A2.271,2.271,0,0,0,83.74,28.4a5.133,5.133,0,0,0-.659,2.672,4.465,4.465,0,0,0,.659,2.5A2.322,2.322,0,0,0,85.832,34.58Zm.062-8.666a4.262,4.262,0,0,1,3.076,1.213A4.736,4.736,0,0,1,90.227,30.7a6.122,6.122,0,0,1-1.107,3.762,4.006,4.006,0,0,1-3.437,1.485A3.88,3.88,0,0,1,82.6,34.629,5.19,5.19,0,0,1,81.455,31.1a5.615,5.615,0,0,1,1.2-3.779A4.041,4.041,0,0,1,85.894,25.914Zm6.258.272h1.5v1.626a3.592,3.592,0,0,1,.905-1.156,2.347,2.347,0,0,1,1.661-.681q.044,0,.149.009t.36.035v1.67a2.363,2.363,0,0,0-.259-.035q-.119-.009-.259-.009a2.258,2.258,0,0,0-1.837.769,2.684,2.684,0,0,0-.642,1.771V35.6H92.151Zm16.6-3.85a5.291,5.291,0,0,1,3.806,1.292,4.563,4.563,0,0,1,1.5,2.936h-1.705a3.549,3.549,0,0,0-1.156-1.978,3.663,3.663,0,0,0-2.43-.729,3.9,3.9,0,0,0-3.081,1.34,6.11,6.11,0,0,0-1.173,4.109,5.968,5.968,0,0,0,1.059,3.678,3.7,3.7,0,0,0,3.16,1.411,3.338,3.338,0,0,0,2.944-1.485,5.649,5.649,0,0,0,.8-2.057h1.705a5.826,5.826,0,0,1-1.512,3.419,5.379,5.379,0,0,1-4.148,1.661,5.475,5.475,0,0,1-3.779-1.362q-2.013-1.8-2.013-5.563a7.107,7.107,0,0,1,1.512-4.685A5.522,5.522,0,0,1,108.754,22.337ZM119.837,34.58a2.182,2.182,0,0,0,2.158-1.191,5.933,5.933,0,0,0,.584-2.65,4.718,4.718,0,0,0-.422-2.145,2.373,2.373,0,0,0-2.3-1.3,2.271,2.271,0,0,0-2.109,1.107,5.133,5.133,0,0,0-.659,2.672,4.465,4.465,0,0,0,.659,2.5A2.322,2.322,0,0,0,119.837,34.58Zm.062-8.666a4.262,4.262,0,0,1,3.076,1.213,4.736,4.736,0,0,1,1.257,3.568,6.122,6.122,0,0,1-1.107,3.762,4.006,4.006,0,0,1-3.437,1.485,3.88,3.88,0,0,1-3.085-1.314A5.19,5.19,0,0,1,115.46,31.1a5.615,5.615,0,0,1,1.2-3.779A4.041,4.041,0,0,1,119.9,25.914Zm6.214.272h1.5v1.336a4.215,4.215,0,0,1,1.415-1.187,3.773,3.773,0,0,1,1.661-.36,2.739,2.739,0,0,1,2.707,1.4,4.962,4.962,0,0,1,.387,2.188V35.6h-1.608V29.667a3.212,3.212,0,0,0-.255-1.389,1.545,1.545,0,0,0-1.529-.879,3.114,3.114,0,0,0-.923.114,2.377,2.377,0,0,0-1.143.773,2.329,2.329,0,0,0-.514.962,6.478,6.478,0,0,0-.119,1.419V35.6h-1.582Zm10.951,6.46a2.3,2.3,0,0,0,.4,1.213,2.485,2.485,0,0,0,2.074.765,3.059,3.059,0,0,0,1.547-.382,1.27,1.27,0,0,0,.668-1.182,1.011,1.011,0,0,0-.536-.923,6.374,6.374,0,0,0-1.354-.448l-1.257-.316a6.131,6.131,0,0,1-1.775-.668,2,2,0,0,1-1.02-1.775,2.713,2.713,0,0,1,.962-2.162,3.839,3.839,0,0,1,2.588-.826,3.593,3.593,0,0,1,3.067,1.248A2.708,2.708,0,0,1,143,28.894H141.5a1.83,1.83,0,0,0-.378-.976,2.41,2.41,0,0,0-1.89-.624,2.259,2.259,0,0,0-1.358.343,1.074,1.074,0,0,0-.461.905,1.114,1.114,0,0,0,.606.984,3.644,3.644,0,0,0,1.037.387l1.046.255a8.087,8.087,0,0,1,2.285.8,2.118,2.118,0,0,1,.923,1.907,2.906,2.906,0,0,1-.954,2.171,4.059,4.059,0,0,1-2.9.914,3.9,3.9,0,0,1-2.975-.954,3.606,3.606,0,0,1-.936-2.36Zm11.979-6.671a4.294,4.294,0,0,1,1.942.47,3.582,3.582,0,0,1,1.433,1.217,4.2,4.2,0,0,1,.633,1.661,10.868,10.868,0,0,1,.141,2.074h-6.9a4.026,4.026,0,0,0,.677,2.3,2.266,2.266,0,0,0,1.96.866,2.534,2.534,0,0,0,1.978-.817,2.755,2.755,0,0,0,.6-1.1h1.556a3.276,3.276,0,0,1-.409,1.156,4.111,4.111,0,0,1-.778,1.042,3.687,3.687,0,0,1-1.784.949,5.42,5.42,0,0,1-1.292.141,3.964,3.964,0,0,1-2.979-1.279,4.976,4.976,0,0,1-1.222-3.582,5.41,5.41,0,0,1,1.23-3.683A4.059,4.059,0,0,1,149.043,25.976Zm2.522,4.166a4.1,4.1,0,0,0-.448-1.644,2.3,2.3,0,0,0-2.171-1.143,2.406,2.406,0,0,0-1.828.787,2.972,2.972,0,0,0-.782,2Zm3.612-3.955h1.5v1.626a3.592,3.592,0,0,1,.905-1.156,2.347,2.347,0,0,1,1.661-.681q.044,0,.149.009t.36.035v1.67a2.363,2.363,0,0,0-.259-.035q-.119-.009-.259-.009a2.258,2.258,0,0,0-1.837.769,2.684,2.684,0,0,0-.642,1.771V35.6h-1.582Zm6.724,0,2.514,7.664,2.628-7.664h1.731L165.224,35.6h-1.687l-3.472-9.413Zm9.439,6.908a1.3,1.3,0,0,0,.5,1.081,1.857,1.857,0,0,0,1.187.4,3.608,3.608,0,0,0,1.617-.387,2.176,2.176,0,0,0,1.318-2.1V30.81a2.707,2.707,0,0,1-.747.308,6.366,6.366,0,0,1-.9.176l-.958.123a3.664,3.664,0,0,0-1.292.36A1.4,1.4,0,0,0,171.341,33.1Zm3.832-3.2a.859.859,0,0,0,.729-.457,1.391,1.391,0,0,0,.105-.606,1.285,1.285,0,0,0-.576-1.173,3.089,3.089,0,0,0-1.648-.365,2.094,2.094,0,0,0-1.758.668,2.2,2.2,0,0,0-.378,1.1h-1.477A2.718,2.718,0,0,1,171.3,26.64a4.637,4.637,0,0,1,2.518-.681,5.124,5.124,0,0,1,2.7.633,2.147,2.147,0,0,1,1.028,1.969v5.423a.694.694,0,0,0,.1.4.487.487,0,0,0,.426.149q.105,0,.237-.013t.281-.04v1.169a4.406,4.406,0,0,1-.562.132,4.111,4.111,0,0,1-.527.026,1.3,1.3,0,0,1-1.187-.58,2.239,2.239,0,0,1-.272-.87,4.025,4.025,0,0,1-1.389,1.1,4.3,4.3,0,0,1-2,.466,2.967,2.967,0,0,1-2.14-.8,2.642,2.642,0,0,1-.831-1.991,2.564,2.564,0,0,1,.817-2.03,3.889,3.889,0,0,1,2.145-.888Zm8.6-3.981a4.1,4.1,0,0,1,2.588.773,3.705,3.705,0,0,1,1.2,2.663h-1.538a2.839,2.839,0,0,0-.642-1.446,2.027,2.027,0,0,0-1.608-.576,2.222,2.222,0,0,0-2.162,1.477,5.865,5.865,0,0,0-.422,2.364,4.449,4.449,0,0,0,.6,2.382,2.317,2.317,0,0,0,3.441.365,3.311,3.311,0,0,0,.8-1.648h1.538a3.72,3.72,0,0,1-4.017,3.6,3.6,3.6,0,0,1-2.944-1.349,5.164,5.164,0,0,1-1.1-3.371,5.678,5.678,0,0,1,1.2-3.858A3.891,3.891,0,0,1,183.769,25.914Zm5.37.316h1.608V35.6h-1.608Zm0-3.542h1.608v1.793h-1.608Zm7.734,11.892a2.182,2.182,0,0,0,2.158-1.191,5.933,5.933,0,0,0,.584-2.65,4.718,4.718,0,0,0-.422-2.145,2.373,2.373,0,0,0-2.3-1.3,2.271,2.271,0,0,0-2.109,1.107,5.133,5.133,0,0,0-.659,2.672,4.465,4.465,0,0,0,.659,2.5A2.322,2.322,0,0,0,196.873,34.58Zm.062-8.666a4.262,4.262,0,0,1,3.076,1.213,4.736,4.736,0,0,1,1.257,3.568,6.122,6.122,0,0,1-1.107,3.762,4.006,4.006,0,0,1-3.437,1.485,3.88,3.88,0,0,1-3.085-1.314A5.19,5.19,0,0,1,192.5,31.1a5.615,5.615,0,0,1,1.2-3.779A4.041,4.041,0,0,1,196.935,25.914Zm1.837-3.516-2.347,2.54h-1.213l1.608-2.54Zm4.377,3.788h1.5v1.336a4.215,4.215,0,0,1,1.415-1.187,3.773,3.773,0,0,1,1.661-.36,2.739,2.739,0,0,1,2.707,1.4,4.962,4.962,0,0,1,.387,2.188V35.6h-1.608V29.667a3.212,3.212,0,0,0-.255-1.389,1.545,1.545,0,0,0-1.529-.879,3.114,3.114,0,0,0-.923.114,2.377,2.377,0,0,0-1.143.773,2.329,2.329,0,0,0-.514.962,6.478,6.478,0,0,0-.119,1.419V35.6h-1.582Zm10.389,7.5h1.837V35.6h-1.837Z" transform="translate(1051 3037)" fill="#00223d"/>
      <path id="Trazado_137863" data-name="Trazado 137863" d="M-105,1414.4H272V1350" transform="translate(1027.6 1421.6)" fill="none" stroke="#a0a603" stroke-width="1" stroke-dasharray="2"/>
      <g id="Grupo_61932" data-name="Grupo 61932" transform="translate(-169 -45)">
        <g id="Grupo_61930" data-name="Grupo 61930" transform="translate(623.151 2678.166)">
          <path id="Trazado_130752" data-name="Trazado 130752" d="M385.591,237.663h0c0-10.421,7.107-18.869,15.875-18.869H433.7c8.231,0,14.9-7.931,14.9-17.714h0c0-9.783-6.672-17.713-14.9-17.713H232.051c-14.78,0-26.76,14.241-26.76,31.807h0c0,17.567-11.981,31.807-26.76,31.807H104.164c-12.5,0-22.632,12.044-22.632,26.9h0c0,14.857,10.132,26.9,22.632,26.9h29.665c6.936,0,12.558,6.683,12.558,14.927h0c0,8.243-5.623,14.926-12.558,14.926H80.421c-29.182,0-52.839,28.118-52.839,62.8h0c0,34.685,23.656,62.8,52.839,62.8H517.839c46.4,0,84.01-44.706,84.01-99.854h0c0-55.148-37.612-99.855-84.01-99.855H401.465C392.7,256.532,385.591,248.084,385.591,237.663Z" fill="#c6e2f7"/>
          <path id="Trazado_130753" data-name="Trazado 130753" d="M325.391,164.712H456.124a17.36,17.36,0,0,0,17.36-17.36h0a17.36,17.36,0,0,0-17.36-17.361H325.391a17.36,17.36,0,0,0-17.36,17.361h0A17.36,17.36,0,0,0,325.391,164.712Z" transform="translate(-58.739)" fill="#c6e2f7"/>
        </g>
        <g id="Grupo_61929" data-name="Grupo 61929" transform="translate(20 11)">
          <g id="Grupo_61928" data-name="Grupo 61928" transform="translate(653.081 2742.96)">
            <g id="Grupo_61906" data-name="Grupo 61906" transform="translate(54.919 279.017)">
              <g id="Grupo_61904" data-name="Grupo 61904" transform="translate(0 24.517)">
                <path id="Trazado_137831" data-name="Trazado 137831" d="M454.511,383.987c-.079-12.559-89.592-22.178-199.935-21.486S54.849,373.934,54.928,386.492c.029,4.678-.03,20.62,0,25.31.079,12.558,89.592,22.177,199.934,21.485S454.59,421.854,454.511,409.3C454.481,404.618,454.541,388.677,454.511,383.987Z" transform="translate(-54.919 -362.466)" fill="#e0dbd5"/>
                <path id="Trazado_137832" data-name="Trazado 137832" d="M454.513,383.987c.079,12.558-89.307,23.3-199.649,23.991S55.009,399.05,54.93,386.492s89.307-23.3,199.648-23.991S454.435,371.428,454.513,383.987Z" transform="translate(-54.921 -362.466)" fill="#f5f1f0"/>
              </g>
              <g id="Grupo_61905" data-name="Grupo 61905" transform="translate(25.186)">
                <path id="Trazado_137833" data-name="Trazado 137833" d="M435.549,350.7c-.069-10.975-78.3-19.381-174.731-18.776s-174.55,9.991-174.482,20.966c.026,4.089-.026,18.02,0,22.119.069,10.975,78.3,19.382,174.731,18.777s174.55-9.992,174.481-20.967C435.523,368.729,435.574,354.8,435.549,350.7Z" transform="translate(-86.329 -331.891)" fill="#e0dbd5"/>
                <path id="Trazado_137834" data-name="Trazado 137834" d="M435.551,350.7c.068,10.975-78.05,20.362-174.482,20.967s-174.662-7.8-174.731-18.777,78.05-20.362,174.482-20.966S435.482,339.723,435.551,350.7Z" transform="translate(-86.331 -331.891)" fill="#f5f1f0"/>
              </g>
            </g>
            <g id="Grupo_61914" data-name="Grupo 61914" transform="translate(333.442 149.316)">
              <g id="Grupo_61908" data-name="Grupo 61908">
                <g id="Grupo_61907" data-name="Grupo 61907" transform="translate(7.543)">
                  <path id="Trazado_137835" data-name="Trazado 137835" d="M378.182,278.023s14.619,7.581,22.066-.74-1.906-12.883,4.846-22.673,18.392-10.269,18.882-21.888-10.258-7.488-1.987-20.4-.217-46.526-13.4-41.719-4.641,35.761-7.64,40.058-11.924,2.411-12.106,10.888,6.151,18.3.451,24.239S372.886,265.067,378.182,278.023Z" transform="translate(-376.752 -170.14)" fill="#8eb57d"/>
                </g>
                <path id="Trazado_137836" data-name="Trazado 137836" d="M367.345,290.638s40.96-30.188,47.412-94.018" transform="translate(-367.345 -175.387)" fill="none" stroke="#b4cc8d" stroke-miterlimit="10" stroke-width="1"/>
              </g>
              <g id="Grupo_61910" data-name="Grupo 61910" transform="translate(2.71 100.955)">
                <g id="Grupo_61909" data-name="Grupo 61909" transform="translate(2.85)">
                  <path id="Trazado_137837" data-name="Trazado 137837" d="M374.279,320.52s1.564,9.691,8.193,10.3,5.49-5.489,12.574-5.735,11.448,5.157,17.185,1.264-.059-7.571,9.057-8.2,22.194-16.631,15.209-21.236-18.767,10.482-21.889,10.573-5.39-4.852-9.512-1.928-6.577,9.447-11.443,8.827S378.6,313.383,374.279,320.52Z" transform="translate(-374.279 -296.041)" fill="#8eb57d"/>
                </g>
                <path id="Trazado_137838" data-name="Trazado 137838" d="M370.725,320.911s26.813,5.762,59.525-16.268" transform="translate(-370.725 -297.746)" fill="none" stroke="#b4cc8d" stroke-miterlimit="10" stroke-width="1"/>
              </g>
              <g id="Grupo_61913" data-name="Grupo 61913" transform="translate(3.913 48.517)">
                <g id="Grupo_61912" data-name="Grupo 61912">
                  <g id="Grupo_61911" data-name="Grupo 61911" transform="translate(4.655)">
                    <path id="Trazado_137839" data-name="Trazado 137839" d="M378.089,305.465s9.367,9.248,17.021,4.657,1.595-10.286,9.067-16.162,16.472-3.486,19.6-12.241-6.06-8.145,3.311-16.041,10.847-35.573-.358-35.025-12.008,26.2-15.316,28.775-9.674-.982-11.819,5.446.363,15.43-5.393,18.613S377.113,294.321,378.089,305.465Z" transform="translate(-378.03 -230.645)" fill="#b4cc8d"/>
                  </g>
                  <path id="Trazado_137840" data-name="Trazado 137840" d="M372.225,309s34.17-15,52.123-64.746" transform="translate(-372.225 -233.342)" fill="none" stroke="#8eb57d" stroke-miterlimit="10" stroke-width="1"/>
                </g>
                <path id="Trazado_137841" data-name="Trazado 137841" d="M398.756,304.8c2.523-7.574,11.184-13.383,17.591-15.789s5.393-5.878,5.177-12.784c-.21-6.725,13.221-21.892,13.925-22.684-.821,6.676-3.347,13.385-7.245,16.671-9.371,7.9-.186,7.286-3.311,16.041s-12.125,6.365-19.6,12.241-1.411,11.572-9.067,16.162c-4.293,2.575-9.124.8-12.54-1.262l-.01-.02S396.233,312.374,398.756,304.8Z" transform="translate(-374.495 -235.182)" fill="#8eb57d"/>
              </g>
            </g>
            <g id="Grupo_61922" data-name="Grupo 61922" transform="translate(129.771 145.59)">
              <g id="Grupo_61916" data-name="Grupo 61916" transform="translate(7.355)">
                <g id="Grupo_61915" data-name="Grupo 61915">
                  <path id="Trazado_137842" data-name="Trazado 137842" d="M173.039,275.991s-14.692,9.27-23.26,1.185.857-13.711-7.111-23.4-20.246-9.157-21.8-21.328,10.118-8.784.274-21.617-3.911-48.926,10.378-45.047,8.06,37.178,11.595,41.428,12.75,1.473,13.694,10.367-4.838,19.788,1.682,25.52S177.453,261.9,173.039,275.991Z" transform="translate(-116.285 -165.493)" fill="#8eb57d"/>
                </g>
                <path id="Trazado_137843" data-name="Trazado 137843" d="M185.262,288.581s-45.742-28.088-58.2-94.611" transform="translate(-118.42 -171.136)" fill="none" stroke="#b4cc8d" stroke-miterlimit="10" stroke-width="1"/>
              </g>
              <g id="Grupo_61918" data-name="Grupo 61918" transform="translate(0 108.158)">
                <g id="Grupo_61917" data-name="Grupo 61917">
                  <path id="Trazado_137844" data-name="Trazado 137844" d="M176.371,320.864s-.782,10.326-7.7,11.555-6.259-5.281-13.728-4.909-11.576,6.439-17.952,2.857-.611-7.963-10.25-7.81-24.809-15.508-17.876-20.97,20.659,9.349,23.95,9.167,5.234-5.579,9.827-2.872,7.754,9.345,12.814,8.26S171.2,313.745,176.371,320.864Z" transform="translate(-107.113 -300.376)" fill="#8eb57d"/>
                </g>
                <path id="Trazado_137845" data-name="Trazado 137845" d="M181.256,320.971s-27.673,8.443-64.018-11.805" transform="translate(-109.119 -302.118)" fill="none" stroke="#b4cc8d" stroke-miterlimit="10" stroke-width="1"/>
              </g>
              <g id="Grupo_61921" data-name="Grupo 61921" transform="translate(0.856 52.394)">
                <g id="Grupo_61920" data-name="Grupo 61920">
                  <g id="Grupo_61919" data-name="Grupo 61919">
                    <path id="Trazado_137846" data-name="Trazado 137846" d="M173.172,305.152s-9.023,10.555-17.477,6.411-2.592-10.671-10.969-16.183-17.625-2.2-21.689-11.124,5.645-9.1-4.907-16.568-14.567-36.428-2.739-36.849,14.954,26.477,18.659,28.885,10.082-1.893,12.908,4.674.991,16.252,7.325,19.085S173.207,293.351,173.172,305.152Z" transform="translate(-108.18 -230.834)" fill="#b4cc8d"/>
                  </g>
                  <path id="Trazado_137847" data-name="Trazado 137847" d="M180.543,308.424S143.29,295.693,119.992,245" transform="translate(-110.52 -233.641)" fill="none" stroke="#8eb57d" stroke-miterlimit="10" stroke-width="1"/>
                </g>
                <path id="Trazado_137848" data-name="Trazado 137848" d="M152.371,306.359c-3.325-7.737-12.946-13.072-19.9-15.031s-6.191-5.7-6.579-12.978c-.378-7.088-15.845-21.837-16.656-22.605,1.457,6.944,4.709,13.772,9.1,16.878,10.552,7.467.844,7.643,4.907,16.568s13.312,5.612,21.689,11.124,2.513,12.039,10.969,16.183c4.741,2.324,9.662.025,13.069-2.443l.009-.022S155.7,314.1,152.371,306.359Z" transform="translate(-108.39 -235.77)" fill="#8eb57d"/>
              </g>
            </g>
            <path id="Trazado_137849" data-name="Trazado 137849" d="M456.817,352.285c.015,2.442-16.766,4.527-37.483,4.656s-37.523-1.744-37.538-4.186,16.767-4.527,37.483-4.656S456.8,349.842,456.817,352.285Z" transform="translate(-64.767 -56.083)" fill="#6c467a" opacity="0.16" style="mix-blend-mode: multiply;isolation: isolate"/>
            <g id="Grupo_61924" data-name="Grupo 61924" transform="translate(184.506 106.034)">
              <path id="Trazado_137850" data-name="Trazado 137850" d="M327.578,65.04H180.528L166.643,75.769V259.424h147.05l13.885-10.729Z" transform="translate(-166.643 -65.04)" fill="#f5f1f0"/>
              <path id="Trazado_137851" data-name="Trazado 137851" d="M180.528,65.04,166.643,75.769V259.424h147.05L327.578,248.7V65.04Zm144.96,185.268-11.795,9.117L168.734,256.9V78.015l13.524-10.45H325.488Z" transform="translate(-166.643 -65.04)" fill="#87b5ed"/>
              <path id="Trazado_137852" data-name="Trazado 137852" d="M183.279,69.154l.414-.321h-2.215l-10.6,8.217h1.956l-.1.075.229-.075h.13l.1-.075c10.995-3.612,10.5-8.13,10.5-8.13Z" transform="translate(-168.073 -66.321)" fill="#6d91d9"/>
              <g id="Grupo_61923" data-name="Grupo 61923" transform="translate(0 10.729)">
                <rect id="Rectángulo_18664" data-name="Rectángulo 18664" width="147.05" height="183.655" transform="translate(0)" fill="#a0a603"/>
                <rect id="Rectángulo_18665" data-name="Rectángulo 18665" width="93.759" height="68.388" transform="translate(28.476 38.018)" fill="#6d91d9" opacity="0.23" style="mix-blend-mode: multiply;isolation: isolate"/>
                <rect id="Rectángulo_18666" data-name="Rectángulo 18666" width="87.7" height="57.653" transform="translate(31.506 43.567)" fill="#fff"/>
                <rect id="Rectángulo_18667" data-name="Rectángulo 18667" width="4.09" height="183.655" transform="translate(2.802)" fill="#6d91d9"/>
                <path id="Trazado_137853" data-name="Trazado 137853" d="M313.693,254.569c-95.325-39.545-131.2-132.29-142.742-173.327h-4.308V264.9h147.05Z" transform="translate(-166.643 -81.242)" fill="#6d91d9" opacity="0.08" style="mix-blend-mode: multiply;isolation: isolate"/>
              </g>
              <path id="Trazado_137854" data-name="Trazado 137854" d="M390.823,262.324l-2.31,1.7V80.373l2.31-1.7Z" transform="translate(-241.589 -69.644)" fill="#6c467a" opacity="0.16" style="mix-blend-mode: multiply;isolation: isolate"/>
            </g>
            <path id="Trazado_137855" data-name="Trazado 137855" d="M187.67,318.36l48.785,7.987v34.64l-51.576-8.275Z" transform="translate(-25.75 -50.192)" fill="#5e4940"/>
            <g id="Grupo_61927" data-name="Grupo 61927" transform="translate(99.081 263.968)">
              <path id="Trazado_137856" data-name="Trazado 137856" d="M237.8,336.119a9.672,9.672,0,0,0-6.347-3.731,8.552,8.552,0,0,0-2.02,0,8.47,8.47,0,0,0-1.885-.467,8.576,8.576,0,0,0-2.531.079,10.363,10.363,0,0,0-2.679-.353l-14.272-2.337c.054-.058.1-.122.156-.18l-18.814-3.1c-.053.063-.1.132-.154.2l-12.31-2.016A10.957,10.957,0,0,0,172.136,322c-4.1-.764-8.228.949-11.431,4.272h0a20.061,20.061,0,0,0-3.428,4.88l-.041.079q-.326.651-.613,1.336l-.069.164q-.274.669-.512,1.366c-.022.065-.043.131-.064.2-.155.468-.3.945-.426,1.432-.014.053-.026.106-.039.159-.13.509-.248,1.026-.346,1.554q-.173.93-.272,1.851a22.555,22.555,0,0,0,.321,7.022q.173.823.407,1.609c1.246,4.19,3.774,7.533,7.143,9.151a10.665,10.665,0,0,0,2.677.876c.322.06.644.1.965.129.072.006.144.013.216.018.323.024.646.036.968.03h.01c.326-.006.651-.031.975-.067l.152-.017c.331-.041.662-.095.99-.165h0l.014,0a10.409,10.409,0,0,0,1.989.293h0l.333.053-56.869,50.254a12.869,12.869,0,0,0,5.227,22.219h0c33.027,3.914,44.863-7.922,44.863-7.922l8.369-24.836-15.324-.91,6.756-8.226,10.506.7,8.072-21.754,5.08-6.849,30.483,4.891a10.364,10.364,0,0,0,3.119.5c.22,0,.435-.029.652-.043.159.029.318.056.48.075a7.547,7.547,0,0,0,1,.049,9.633,9.633,0,0,0,.986-.066,8.572,8.572,0,0,0,.912.285h0a7.793,7.793,0,0,0,1,.192l.013,0a8.414,8.414,0,0,0,1.1.055c.029,0,.058,0,.087,0a8.778,8.778,0,0,0,1.036-.087l.131-.018a9.261,9.261,0,0,0,.993-.217l.152-.042a9.667,9.667,0,0,0,.959-.338l.154-.065c.315-.135.627-.287.933-.455l.142-.08c.277-.158.552-.325.82-.508.031-.021.062-.045.093-.067l.115-.084c.306-.218.606-.45.9-.7l.071-.064c.306-.265.606-.545.9-.844.164-.168.325-.342.484-.52.212-.238.416-.488.618-.744l.149-.192c.348-.455.682-.932,1-1.436.047-.077.092-.156.14-.234l.018-.029c.079-.132.16-.263.237-.4a21.332,21.332,0,0,0,1.363-2.885q.295-.766.541-1.574a24.223,24.223,0,0,0,.616-2.5q.165-.86.27-1.751t.147-1.766q.042-.874.021-1.73A18.886,18.886,0,0,0,237.8,336.119Z" transform="translate(-110.136 -314.846)" fill="#6d91d9" opacity="0.23" style="mix-blend-mode: multiply;isolation: isolate"/>
              <g id="Grupo_61926" data-name="Grupo 61926">
                <ellipse id="Elipse_1834" data-name="Elipse 1834" cx="18.282" cy="13.856" rx="18.282" ry="13.856" transform="translate(41.108 35.947) rotate(-79.455)" fill="#785f54"/>
                <ellipse id="Elipse_1835" data-name="Elipse 1835" cx="13.279" cy="17.32" rx="13.279" ry="17.32" transform="translate(98.346 12.186)" fill="#5e4940"/>
                <ellipse id="Elipse_1836" data-name="Elipse 1836" cx="13.279" cy="17.32" rx="13.279" ry="17.32" transform="translate(48.31 4.103)" fill="#5e4940"/>
                <path id="Trazado_137857" data-name="Trazado 137857" d="M187.67,318.36l48.785,7.987v34.64l-51.576-8.275Z" transform="translate(-124.831 -314.16)" fill="#5e4940"/>
                <path id="Trazado_137858" data-name="Trazado 137858" d="M225.17,324.417l-18.814-3.1a30.877,30.877,0,0,0-6.376,13.008,29.288,29.288,0,0,0,2.887,21.354l17.14,2.763a29.66,29.66,0,0,1-2.143-19.986A30.567,30.567,0,0,1,225.17,324.417Z" transform="translate(-127.661 -314.747)" fill="#ffc182"/>
                <g id="Grupo_61925" data-name="Grupo 61925" transform="translate(102.647 11.503)">
                  <path id="Trazado_137859" data-name="Trazado 137859" d="M256.1,329.11a8.531,8.531,0,0,0-1.982.017,8.5,8.5,0,0,0-1.923-.48c-6.613-.784-12.888,6.28-14.013,15.78s3.321,17.835,9.935,18.619a8.531,8.531,0,0,0,1.982-.017,8.5,8.5,0,0,0,1.923.48c6.613.784,12.888-6.28,14.013-15.78S262.71,329.894,256.1,329.11Z" transform="translate(-238.004 -327.69)" fill="#5e4940"/>
                  <ellipse id="Elipse_1837" data-name="Elipse 1837" cx="17.32" cy="12.058" rx="17.32" ry="12.058" transform="translate(2.04 34.399) rotate(-83.238)" fill="#917366"/>
                </g>
                <path id="Trazado_137860" data-name="Trazado 137860" d="M230,334.689s-2.694,4.041-5.773,5-44.455-5.773-49.074-8.853-3.079-8.66-3.079-8.66l-1.2-.567a21.869,21.869,0,0,0-5.538,11.166c-1.848,9.926,2.753,19.108,10.276,20.509a10.825,10.825,0,0,0,4.277-.072,10.373,10.373,0,0,0,2,.3l50.614,8.12v-.185a7.9,7.9,0,0,0,3.114.2,8.592,8.592,0,0,0,.913.285,7.649,7.649,0,0,0,1,.193l.013,0c3.1.368,6.125-.99,8.581-3.513.164-.168.325-.342.484-.52a17.226,17.226,0,0,0,1.35-1.738,20.435,20.435,0,0,0,2.007-3.817C233.539,362.625,230,334.689,230,334.689Z" transform="translate(-120.877 -314.805)" fill="#6d91d9" opacity="0.32" style="mix-blend-mode: multiply;isolation: isolate"/>
                <path id="Trazado_137861" data-name="Trazado 137861" d="M196.311,349.337c0-2.912-2.887-5.273-6.447-5.273a6.911,6.911,0,0,0-5.364,2.349l-.024-.011-70.007,61.864a12.869,12.869,0,0,0,5.227,22.219h0a12.868,12.868,0,0,0,13.014-4.178L194.5,353A4.8,4.8,0,0,0,196.311,349.337Z" transform="translate(-109.993 -319.253)" fill="#5e4940"/>
                <path id="Trazado_137862" data-name="Trazado 137862" d="M172.069,374.679c.718-2.268-.4-4.176-2.694-3.637a13.168,13.168,0,0,0-5.77,3.81L132.192,402.3c-7.359,6.343-16.216,15.146-6.8,17.543h0a12.013,12.013,0,0,0,12.147-3.9l32.257-38.069A11.9,11.9,0,0,0,172.069,374.679Z" transform="translate(-112.236 -324.58)" fill="#735f4e"/>
              </g>
            </g>
          </g>
        </g>
      </g>
      <circle id="Elipse_1838" data-name="Elipse 1838" cx="8.13" cy="8.13" r="8.13" transform="translate(895 2828.263)" fill="#a0a603"/>
      <circle id="Elipse_1839" data-name="Elipse 1839" cx="8.13" cy="8.13" r="8.13" transform="translate(1043 2953.263)" fill="#a0a603"/>
      <circle id="Elipse_1840" data-name="Elipse 1840" cx="8.13" cy="8.13" r="8.13" transform="translate(982 3080.263)" fill="#a0a603"/>
      <path id="Trazado_137864" data-name="Trazado 137864" d="M-105,1414.4H143.266V1350" transform="translate(1156.334 1546.6)" fill="none" stroke="#a0a603" stroke-width="1" stroke-dasharray="2"/>
      <path id="Trazado_137865" data-name="Trazado 137865" d="M-105,1414.4H196.34V1350" transform="translate(1103.26 1673.6)" fill="none" stroke="#a0a603" stroke-width="1" stroke-dasharray="2"/>
    </g>
  </g>
</svg>
