<svg xmlns="http://www.w3.org/2000/svg" width="75.828" height="75.828" viewBox="0 0 75.828 75.828">
  <g id="Grupo_62089" data-name="Grupo 62089" transform="translate(-1293.563 -7733.172)">
    <g id="Grupo_62085" data-name="Grupo 62085">
      <g id="Grupo_61407" data-name="Grupo 61407" transform="translate(737 423)">
        <g id="Grupo_61401" data-name="Grupo 61401" transform="translate(39 38)">
          <path id="Trazado_5390" data-name="Trazado 5390" d="M1909.431,6466.172q1.863,0,3.716.183t3.68.546q1.827.363,3.609.9t3.5,1.253q1.72.713,3.364,1.591t3.191,1.913q1.548,1.034,2.989,2.216t2.757,2.5q1.317,1.317,2.5,2.756t2.217,2.988q1.035,1.549,1.913,3.192t1.591,3.364q.713,1.72,1.254,3.5t.9,3.609q.363,1.827.546,3.68t.183,3.717q0,1.863-.183,3.716t-.546,3.681q-.363,1.827-.9,3.609t-1.254,3.5q-.712,1.721-1.591,3.364t-1.913,3.191q-1.035,1.548-2.217,2.988t-2.5,2.757q-1.317,1.318-2.757,2.5t-2.989,2.217q-1.549,1.034-3.191,1.913t-3.364,1.59q-1.721.713-3.5,1.253t-3.609.9q-1.827.364-3.68.546t-3.716.183q-1.862,0-3.716-.183t-3.68-.546q-1.827-.363-3.609-.9t-3.5-1.253q-1.721-.713-3.364-1.59t-3.192-1.913q-1.549-1.035-2.988-2.217t-2.757-2.5q-1.318-1.318-2.5-2.757t-2.216-2.988q-1.034-1.549-1.913-3.191t-1.591-3.364q-.712-1.72-1.254-3.5t-.9-3.609q-.363-1.827-.546-3.681t-.182-3.716q0-1.863.182-3.717t.546-3.68q.363-1.826.9-3.609t1.254-3.5q.713-1.721,1.591-3.364t1.913-3.192q1.035-1.548,2.216-2.988t2.5-2.756q1.317-1.318,2.757-2.5t2.988-2.216q1.549-1.034,3.192-1.913t3.364-1.591q1.721-.713,3.5-1.253t3.609-.9q1.827-.364,3.68-.546T1909.431,6466.172Z" transform="translate(-1353.954 806)" fill="#a0a603"/>
          <path id="Trazado_89795" data-name="Trazado 89795" d="M35.613,0A35.613,35.613,0,1,1,0,35.613,35.57,35.57,0,0,1,35.613,0Z" transform="translate(519.864 7274.473)" fill="#fff"/>
          <circle id="Elipse_120" data-name="Elipse 120" cx="32.397" cy="32.397" r="32.397" transform="translate(523.08 7277.689)" fill="#d8df25"/>
        </g>
        <path id="Trazado_138142" data-name="Trazado 138142" d="M-7.383-6.724a4.166,4.166,0,0,0,.923,2.8A2.944,2.944,0,0,0-4.116-2.842a2.6,2.6,0,0,0,2.19-1.047,4.36,4.36,0,0,0,.8-2.717,4.066,4.066,0,0,0-.908-2.849,2.907,2.907,0,0,0-2.227-.989,2.973,2.973,0,0,0-1.89.645A3.648,3.648,0,0,0-7.383-6.724Zm5.874-9.17a2.129,2.129,0,0,0-.4-1.128,2.292,2.292,0,0,0-2.036-1,3.01,3.01,0,0,0-2.9,2.285,14.18,14.18,0,0,0-.645,3.721,4.686,4.686,0,0,1,1.8-1.348,6.08,6.08,0,0,1,2.344-.425A6.09,6.09,0,0,1,1.3-11.865,6.866,6.866,0,0,1,3.105-6.958,8.283,8.283,0,0,1,1.333-1.714Q-.439.557-4.175.557A6.339,6.339,0,0,1-10.093-2.8a13.678,13.678,0,0,1-1.479-6.768,30.775,30.775,0,0,1,.205-3.955,12.1,12.1,0,0,1,1.421-4.512,7.27,7.27,0,0,1,2.38-2.476,6.42,6.42,0,0,1,3.523-.937A6.974,6.974,0,0,1,.674-19.929a5.765,5.765,0,0,1,1.978,4.036ZM6.05-4.365h4.438V0H6.05Z" transform="translate(594 7358)" fill="#0f231a"/>
      </g>
    </g>
  </g>
</svg>
